<svg width="302" height="831" viewBox="0 0 302 831" fill="none" xmlns="http://www.w3.org/2000/svg">
<rect x="216.985" y="0.612372" width="87" height="836" transform="rotate(15 216.985 0.612372)" fill="white" stroke="black"/>
<path d="M235.75 52.2859L249.694 56.0222L250.291 53.7967L253.594 54.6819L252.998 56.9074L254.632 57.3453C256.58 57.8671 257.84 58.7266 258.414 59.9239C259.011 61.1274 259.076 62.5985 258.61 64.3371L258.191 65.9019L254.818 64.9981L255.07 64.0593C255.287 63.2479 255.28 62.6248 255.049 62.1901C254.834 61.7848 254.344 61.4797 253.579 61.2747L251.945 60.8368L251.013 64.3141L247.71 63.429L248.642 59.9516L234.698 56.2153L235.75 52.2859ZM230.508 70.1815C230.961 68.4892 231.739 67.0702 232.841 65.9244C233.943 64.7786 235.272 63.9917 236.828 63.5638C238.401 63.1653 240.103 63.2114 241.934 63.7021C243.812 64.2053 245.315 65.0427 246.442 66.2143C247.569 67.386 248.309 68.7519 248.661 70.3123C249.036 71.8788 249 73.4966 248.553 75.1657C248.099 76.858 247.322 78.2771 246.22 79.4229C245.134 80.5981 243.814 81.3996 242.258 81.8275C240.696 82.2786 238.976 82.2526 237.099 81.7495C235.36 81.2836 233.912 80.4733 232.756 79.3186C231.593 78.1871 230.804 76.8203 230.388 75.2182C229.99 73.6455 230.03 71.9666 230.508 70.1815ZM233.906 71.1294C233.639 72.1263 233.65 73.0608 233.938 73.9331C234.243 74.8348 234.765 75.6207 235.505 76.291C236.245 76.9613 237.159 77.4425 238.249 77.7344C239.385 78.0388 240.429 78.0825 241.382 77.8657C242.334 77.6489 243.133 77.2169 243.779 76.5699C244.441 75.9523 244.903 75.1567 245.164 74.1831C245.437 73.163 245.433 72.2053 245.151 71.3099C244.863 70.4376 244.343 69.6895 243.591 69.0655C242.862 68.4478 241.952 67.993 240.863 67.701C239.681 67.3843 238.602 67.3312 237.626 67.5418C236.667 67.7818 235.868 68.2137 235.229 68.8376C234.583 69.4845 234.143 70.2485 233.906 71.1294ZM227.656 82.4942L244.904 87.1156L243.879 90.9407L241.043 90.2555C241.908 91.1084 242.488 92.0962 242.784 93.2189C243.096 94.3711 243.079 95.5962 242.731 96.8944L238.593 95.7857L238.882 94.7077C239.304 93.1313 239.223 91.855 238.64 90.8788C238.057 89.9026 236.931 89.1908 235.262 88.7436L226.603 86.4236L227.656 82.4942Z" fill="#607BC4"/>
<path d="M189.589 224.561L206.837 229.182L205.812 233.007L203.638 232.499C204.34 233.309 204.779 234.221 204.954 235.237C205.152 236.259 205.108 237.303 204.822 238.37C204.468 239.691 203.87 240.811 203.028 241.728C202.203 242.675 201.133 243.282 199.819 243.551C200.724 244.44 201.329 245.472 201.636 246.647C201.959 247.852 201.956 249.068 201.627 250.297C201.266 251.642 200.668 252.761 199.832 253.655C199.013 254.579 197.967 255.193 196.693 255.497C195.418 255.802 193.935 255.727 192.243 255.274L182.089 252.553L183.132 248.659L192.765 251.24C194.225 251.631 195.451 251.599 196.443 251.144C197.428 250.713 198.095 249.848 198.442 248.549C198.796 247.228 198.632 246.078 197.95 245.101C197.291 244.129 196.197 243.438 194.667 243.028L185.313 240.522L186.356 236.627L195.989 239.208C197.472 239.606 198.701 239.562 199.676 239.078C200.667 238.623 201.334 237.758 201.676 236.483C201.98 235.347 201.838 234.253 201.25 233.201C200.68 232.179 199.56 231.444 197.891 230.997L188.537 228.49L189.589 224.561ZM178.547 264.102C179.001 262.41 179.778 260.991 180.88 259.845C181.983 258.7 183.311 257.913 184.867 257.485C186.44 257.086 188.142 257.132 189.973 257.623C191.851 258.126 193.354 258.964 194.481 260.135C195.608 261.307 196.348 262.673 196.7 264.233C197.075 265.8 197.039 267.418 196.592 269.087C196.138 270.779 195.361 272.198 194.259 273.344C193.173 274.519 191.853 275.321 190.297 275.748C188.735 276.2 187.015 276.174 185.138 275.67C183.399 275.205 181.951 274.394 180.795 273.24C179.632 272.108 178.843 270.741 178.427 269.139C178.029 267.566 178.069 265.887 178.547 264.102ZM181.946 265.05C181.678 266.047 181.689 266.982 181.977 267.854C182.282 268.756 182.804 269.542 183.544 270.212C184.284 270.882 185.198 271.363 186.288 271.655C187.424 271.96 188.468 272.003 189.421 271.787C190.373 271.57 191.172 271.138 191.818 270.491C192.48 269.873 192.942 269.078 193.203 268.104C193.476 267.084 193.472 266.126 193.19 265.231C192.902 264.358 192.382 263.61 191.63 262.986C190.901 262.369 189.991 261.914 188.902 261.622C187.72 261.305 186.641 261.252 185.665 261.463C184.706 261.703 183.907 262.135 183.268 262.758C182.622 263.405 182.182 264.169 181.946 265.05ZM175.695 276.415L192.943 281.037L191.918 284.862L189.083 284.176C189.947 285.029 190.527 286.017 190.823 287.14C191.135 288.292 191.118 289.517 190.77 290.815L186.632 289.707L186.921 288.629C187.343 287.052 187.263 285.776 186.679 284.8C186.096 283.823 184.97 283.112 183.301 282.665L174.642 280.344L175.695 276.415ZM169.986 296.052C170.452 294.314 171.241 292.898 172.354 291.805C173.49 290.718 174.83 289.983 176.373 289.602C177.934 289.25 179.595 289.309 181.357 289.782C183.188 290.272 184.68 291.057 185.832 292.136C186.977 293.238 187.747 294.538 188.141 296.035C188.552 297.561 188.525 299.194 188.059 300.932C187.605 302.625 186.84 303.997 185.763 305.05C184.709 306.11 183.448 306.828 181.98 307.205C180.513 307.582 178.968 307.553 177.345 307.118C177.02 307.031 176.734 306.942 176.485 306.85C176.23 306.782 175.958 306.684 175.669 306.557L179.182 293.448C178.259 293.275 177.385 293.289 176.561 293.491C175.76 293.699 175.072 294.086 174.498 294.652C173.918 295.242 173.509 295.978 173.273 296.859C173.019 297.809 173.013 298.665 173.256 299.426C173.494 300.21 173.957 300.893 174.645 301.475L173.537 305.613C172.58 305.009 171.77 304.233 171.104 303.284C170.433 302.359 169.977 301.28 169.736 300.048C169.511 298.845 169.595 297.513 169.986 296.052ZM181.919 294.218L179.469 303.364C180.75 303.682 181.88 303.5 182.858 302.818C183.835 302.136 184.489 301.181 184.818 299.952C185.116 298.839 185.05 297.741 184.62 296.657C184.184 295.596 183.284 294.783 181.919 294.218Z" fill="#607BC4"/>
<path d="M132.994 435.778L149.431 443.425L148.369 447.389L131.932 439.742L132.994 435.778ZM151.525 447.154C151.712 446.458 152.116 445.921 152.74 445.541C153.357 445.185 154.025 445.103 154.744 445.295C155.462 445.488 155.988 445.89 156.322 446.501C156.672 447.141 156.754 447.809 156.567 448.505C156.381 449.2 155.979 449.726 155.362 450.082C154.762 450.468 154.102 450.565 153.383 450.372C152.665 450.18 152.13 449.763 151.78 449.123C151.424 448.505 151.339 447.849 151.525 447.154ZM130.866 443.719L147.303 451.366L146.362 454.878L143.462 453.877C144.307 454.899 144.881 456.047 145.186 457.321C145.49 458.595 145.466 459.893 145.111 461.214C144.639 462.976 143.783 464.225 142.542 464.961C141.301 465.697 139.765 465.819 137.934 465.329C137.609 465.242 137.268 465.125 136.909 464.98C136.568 464.863 136.209 464.718 135.834 464.542L126.468 460.132L127.521 456.203L136.532 460.406C136.752 460.515 137.009 460.621 137.304 460.725C137.593 460.852 137.83 460.94 138.016 460.99C140.241 461.586 141.649 460.783 142.239 458.581C142.469 457.723 142.469 456.841 142.24 455.935C142.028 455.058 141.61 454.251 140.988 453.513C140.36 452.798 139.526 452.201 138.486 451.724L129.813 447.649L130.866 443.719ZM125.301 464.49L138.583 470.695L139.18 468.469L142.325 469.946L141.738 472.136L143.297 472.853C145.145 473.745 146.338 474.86 146.874 476.196C147.427 477.562 147.468 479.126 146.996 480.888L146.586 482.418L143.381 480.888L143.623 479.984C143.84 479.172 143.839 478.526 143.621 478.045C143.425 477.57 142.963 477.161 142.235 476.817L140.685 476.066L139.744 479.578L136.599 478.102L137.53 474.624L124.248 468.419L125.301 464.49ZM120.006 482.583C120.409 481.076 121.099 479.844 122.076 478.889C123.053 477.933 124.208 477.286 125.541 476.947C126.867 476.632 128.238 476.664 129.652 477.042C131.136 477.44 132.444 478.076 133.576 478.951C134.708 479.826 135.625 480.854 136.327 482.036C137.023 483.241 137.458 484.538 137.633 485.927C137.824 487.345 137.724 488.784 137.333 490.244C136.991 491.519 136.484 492.576 135.813 493.415C135.141 494.253 134.361 494.889 133.475 495.323C132.582 495.779 131.641 496.049 130.65 496.131C129.682 496.22 128.711 496.133 127.737 495.872C126.277 495.481 124.969 494.845 123.814 493.964C122.681 493.089 121.756 492.046 121.037 490.835C120.341 489.629 119.897 488.318 119.706 486.9C119.508 485.505 119.608 484.066 120.006 482.583ZM123.246 484.122C122.935 485.281 122.951 486.378 123.295 487.415C123.662 488.457 124.29 489.358 125.179 490.118C126.063 490.902 127.119 491.458 128.347 491.787C129.692 492.147 130.899 492.048 131.968 491.49C133.037 490.932 133.739 490.027 134.074 488.775C134.385 487.616 134.345 486.512 133.955 485.463C133.589 484.421 132.964 483.508 132.08 482.725C131.191 481.964 130.132 481.42 128.903 481.09C127.581 480.736 126.386 480.839 125.317 481.397C124.272 481.961 123.581 482.87 123.246 484.122ZM117.236 494.589L133.673 502.235L132.722 505.782L129.674 504.779C130.529 505.853 131.111 507.065 131.42 508.415C131.747 509.795 131.708 511.238 131.304 512.744L127.362 510.905L127.65 509.827C127.949 508.715 128.039 507.683 127.921 506.732C127.797 505.804 127.438 504.963 126.846 504.208C126.27 503.482 125.43 502.859 124.327 502.34L116.183 498.518L117.236 494.589ZM113.833 507.289L130.27 514.936L129.338 518.413L126.793 517.619C127.54 518.54 128.053 519.547 128.331 520.641C128.61 521.734 128.59 522.872 128.274 524.054C127.932 525.329 127.362 526.344 126.563 527.099C125.782 527.883 124.793 528.327 123.598 528.429C124.396 529.438 124.936 530.576 125.217 531.844C125.522 533.119 125.509 534.37 125.18 535.599C124.832 536.897 124.3 537.91 123.583 538.637C122.861 539.387 122.014 539.856 121.045 540.044C120.098 540.238 119.057 540.182 117.921 539.878C117.272 539.704 116.584 539.445 115.856 539.101L106.481 534.725L107.534 530.796L116.554 534.965C116.82 535.085 117.077 535.192 117.326 535.283C117.569 535.398 117.806 535.486 118.038 535.548C119.127 535.84 120.022 535.794 120.721 535.41C121.444 535.032 121.932 534.368 122.187 533.418C122.386 532.676 122.381 531.904 122.173 531.103C121.982 530.332 121.596 529.594 121.014 528.892C120.426 528.213 119.635 527.64 118.642 527.175L109.63 522.972L110.683 519.043L119.694 523.246C119.96 523.367 120.217 523.473 120.466 523.565C120.738 523.662 120.979 523.739 121.187 523.795C122.277 524.087 123.168 524.053 123.861 523.692C124.577 523.337 125.066 522.673 125.327 521.699C125.532 520.934 125.507 520.145 125.253 519.331C125.022 518.524 124.569 517.757 123.895 517.029C123.243 516.308 122.366 515.688 121.262 515.169L112.78 511.219L113.833 507.289ZM103.728 543.332C103.989 542.358 104.399 541.524 104.958 540.829C105.54 540.14 106.232 539.642 107.035 539.336C107.854 539.058 108.728 539.044 109.655 539.292C111.023 539.659 112.056 540.346 112.756 541.353C113.478 542.366 113.903 543.561 114.031 544.937C114.153 546.337 114.016 547.778 113.618 549.262L112.444 553.643C112.67 553.728 112.864 553.793 113.026 553.836C113.205 553.909 113.376 553.967 113.538 554.011C114.465 554.259 115.249 554.208 115.89 553.858C116.53 553.508 116.99 552.811 117.27 551.768C117.512 550.864 117.515 549.97 117.28 549.087C117.038 548.228 116.527 547.494 115.745 546.887L116.789 542.993C117.969 543.781 118.884 544.722 119.536 545.816C120.187 546.91 120.592 548.087 120.751 549.347C120.904 550.63 120.801 551.944 120.44 553.289C120.08 554.633 119.555 555.71 118.866 556.519C118.171 557.352 117.338 557.911 116.367 558.198C115.396 558.484 114.296 558.463 113.067 558.133C112.789 558.059 112.517 557.961 112.251 557.84C112.002 557.749 111.722 557.636 111.41 557.503L106.774 555.329C106.618 555.262 106.462 555.196 106.306 555.129C106.144 555.086 106.016 555.051 105.924 555.027C105.483 554.909 105.125 554.949 104.848 555.148C104.594 555.354 104.396 555.723 104.253 556.256L101.108 554.78C101.511 553.273 102.039 552.184 102.691 551.514C103.359 550.873 104.197 550.576 105.203 550.622C104.708 549.968 104.304 549.25 103.991 548.471C103.672 547.715 103.49 546.908 103.446 546.052C103.379 545.189 103.473 544.282 103.728 543.332ZM106.545 545.615C106.309 546.496 106.312 547.366 106.553 548.226C106.789 549.109 107.198 549.902 107.78 550.604C108.379 551.336 109.102 551.928 109.95 552.379L111.031 548.345C111.218 547.649 111.29 546.961 111.249 546.279C111.202 545.62 111.011 545.035 110.676 544.523C110.335 544.034 109.829 543.699 109.156 543.519C108.484 543.339 107.932 543.452 107.5 543.858C107.062 544.287 106.744 544.873 106.545 545.615ZM98.6933 563.79C99.1033 562.26 99.7424 561.127 100.611 560.39C101.472 559.677 102.657 559.522 104.164 559.926C104.419 559.994 104.682 560.077 104.954 560.175C105.22 560.296 105.497 560.42 105.786 560.547L113.541 564.153L114.277 561.406L117.422 562.882L116.686 565.629L120.663 567.478L119.592 571.477L115.624 569.594L114.329 574.427L111.193 572.916L112.47 568.152L104.733 564.476C104.601 564.416 104.468 564.356 104.335 564.295C104.196 564.258 104.068 564.224 103.952 564.193C103.35 564.031 102.877 564.078 102.535 564.335C102.21 564.62 101.945 565.146 101.74 565.911L101.116 568.24L97.9013 566.746L98.6933 563.79ZM97.0526 569.913L113.49 577.56L112.427 581.524L95.9904 573.877L97.0526 569.913ZM115.584 581.289C115.77 580.594 116.175 580.056 116.798 579.676C117.416 579.32 118.084 579.238 118.802 579.431C119.521 579.623 120.047 580.025 120.38 580.636C120.73 581.277 120.812 581.945 120.626 582.64C120.44 583.336 120.038 583.861 119.42 584.218C118.82 584.604 118.161 584.7 117.442 584.508C116.723 584.315 116.189 583.899 115.839 583.258C115.482 582.641 115.397 581.984 115.584 581.289ZM92.2805 586.054C92.6843 584.547 93.3745 583.315 94.3512 582.36C95.3278 581.404 96.4827 580.757 97.8157 580.418C99.1425 580.103 100.513 580.135 101.927 580.513C103.411 580.911 104.719 581.547 105.851 582.422C106.983 583.297 107.9 584.325 108.602 585.507C109.298 586.712 109.733 588.009 109.908 589.398C110.099 590.816 109.999 592.255 109.608 593.715C109.266 594.99 108.76 596.047 108.088 596.886C107.416 597.724 106.636 598.36 105.75 598.794C104.857 599.25 103.916 599.52 102.925 599.602C101.957 599.691 100.986 599.604 100.012 599.344C98.5518 598.952 97.2439 598.316 96.0886 597.435C94.9564 596.56 94.0308 595.517 93.3119 594.306C92.6161 593.101 92.1724 591.789 91.9809 590.371C91.7831 588.976 91.883 587.537 92.2805 586.054ZM95.5206 587.593C95.21 588.752 95.2265 589.849 95.57 590.886C95.9367 591.928 96.5648 592.829 97.4544 593.589C98.3378 594.373 99.3938 594.929 100.622 595.258C101.967 595.619 103.174 595.519 104.243 594.961C105.312 594.403 106.014 593.498 106.349 592.246C106.66 591.087 106.62 589.983 106.23 588.934C105.864 587.892 105.239 586.979 104.355 586.196C103.466 585.435 102.407 584.891 101.178 584.562C99.8565 584.207 98.6613 584.31 97.5924 584.868C96.5466 585.433 95.856 586.341 95.5206 587.593ZM89.5107 598.06L105.948 605.706L105.007 609.219L102.107 608.218C102.951 609.239 103.526 610.387 103.83 611.661C104.135 612.936 104.11 614.233 103.756 615.555C103.284 617.317 102.428 618.566 101.187 619.302C99.946 620.037 98.41 620.16 96.5786 619.669C96.254 619.582 95.9125 619.466 95.554 619.32C95.2125 619.204 94.854 619.058 94.4785 618.883L85.1129 614.473L86.1657 610.543L95.1768 614.747C95.3962 614.855 95.6535 614.962 95.9487 615.065C96.2376 615.193 96.4748 615.281 96.6603 615.331C98.8858 615.927 100.294 615.124 100.884 612.922C101.114 612.064 101.114 611.182 100.885 610.276C100.672 609.399 100.255 608.591 99.6329 607.853C99.0045 607.138 98.1704 606.542 97.1305 606.065L88.4578 601.989L89.5107 598.06Z" fill="#607BC4"/>
<line x1="231.284" y1="109.524" x2="204.367" y2="209.981" stroke="#607BC4"/>
<line x1="174.344" y1="322.028" x2="147.426" y2="422.484" stroke="#607BC4"/>
<path d="M66.4123 684.264L93.1576 681.815L92.0301 686.022L69.8379 687.754L88.182 700.384L87.0639 704.557L65.1358 689.028L66.4123 684.264ZM58.7162 711.317C59.1696 709.625 59.8996 708.106 60.9061 706.761C61.9064 705.439 63.1035 704.356 64.4974 703.512C65.9083 702.697 67.4627 702.182 69.1604 701.966C70.8813 701.756 72.6923 701.906 74.5932 702.415C76.4941 702.925 78.1258 703.697 79.4881 704.733C80.8736 705.775 81.962 706.999 82.7534 708.403C83.5618 709.837 84.0686 711.377 84.2738 713.022C84.479 714.667 84.3517 716.348 83.8921 718.063C83.4324 719.779 82.7024 721.298 81.7022 722.62C80.7251 723.948 79.5311 725.02 78.1201 725.834C76.7262 726.678 75.1688 727.205 73.4479 727.415C71.7207 727.648 69.9067 727.509 68.0057 727C66.1048 726.491 64.4647 725.703 63.0854 724.638C61.6999 723.596 60.603 722.358 59.7946 720.924C59.0032 719.519 58.5049 717.994 58.2997 716.349C58.1177 714.71 58.2565 713.033 58.7162 711.317ZM62.2631 712.268C61.8593 713.775 61.8374 715.247 62.1975 716.685C62.5575 718.123 63.3104 719.394 64.4562 720.496C65.6252 721.604 67.1718 722.416 69.0959 722.932C71.0664 723.46 72.8233 723.533 74.3666 723.151C75.91 722.77 77.1855 722.043 78.1932 720.971C79.2241 719.906 79.9414 718.62 80.3452 717.113C80.7427 715.629 80.7615 714.168 80.4015 712.73C80.0414 711.292 79.2885 710.022 78.1427 708.92C76.9969 707.818 75.4504 707.006 73.5031 706.484C71.5789 705.968 69.8336 705.898 68.2671 706.273C66.7237 706.655 65.4366 707.379 64.4057 708.444C63.3748 709.51 62.6606 710.784 62.2631 712.268ZM54.8104 727.563L79.1518 734.085L78.0896 738.049L57.0517 732.412L54.1633 743.192L50.8598 742.307L54.8104 727.563ZM49.1217 747.403C49.3205 746.661 49.7432 746.103 50.3898 745.73C51.0303 745.38 51.7098 745.301 52.4285 745.494C53.1471 745.686 53.6847 746.091 54.041 746.708C54.4144 747.355 54.5017 748.049 54.3029 748.791C54.1103 749.51 53.6938 750.044 53.0534 750.394C52.4299 750.774 51.7588 750.867 51.0402 750.675C50.3215 750.482 49.7755 750.063 49.4022 749.416C49.0226 748.792 48.9291 748.121 49.1217 747.403ZM43.0516 769.778C43.6479 767.553 44.6826 765.917 46.1556 764.871C47.6286 763.824 49.3964 763.254 51.4588 763.161C53.5213 763.067 55.7348 763.338 58.0994 763.971C60.4639 764.605 62.516 765.478 64.2554 766.59C65.9948 767.702 67.2408 769.079 67.9933 770.722C68.7457 772.365 68.8238 774.299 68.2275 776.524C67.6312 778.75 66.6112 780.377 65.1676 781.407C63.7177 782.459 61.9616 783.032 59.8991 783.126C57.8367 783.219 55.6 782.943 53.189 782.297C50.7781 781.651 48.7029 780.772 46.9635 779.66C45.224 778.547 43.9897 777.173 43.2604 775.537C42.5249 773.923 42.4553 772.004 43.0516 769.778ZM46.5637 770.719C46.0854 772.504 46.5489 774.02 47.9543 775.266C49.3534 776.536 51.4555 777.546 54.2606 778.298C57.0656 779.049 59.3913 779.225 61.2377 778.826C63.0779 778.449 64.2371 777.368 64.7154 775.583C65.1875 773.821 64.7239 772.306 63.3248 771.036C61.9257 769.767 59.8236 768.756 57.0185 768.005C54.2135 767.253 51.8878 767.077 50.0414 767.477C48.195 767.877 47.0358 768.958 46.5637 770.719ZM39.9756 782.927L43.3139 783.822L41.4783 790.672L58.0652 795.116L58.2198 788.002L61.1755 788.794L62.0249 798.004L61.4751 800.055L40.472 794.428L38.8974 800.304L35.5591 799.41L39.9756 782.927Z" fill="black"/>
</svg>
