<svg width="270" height="319" viewBox="0 0 270 319" fill="none" xmlns="http://www.w3.org/2000/svg">
<mask id="path-1-inside-1_19_46" fill="white">
<path d="M124 0C140.284 0 156.408 3.20735 171.453 9.43893C186.497 15.6705 200.167 24.8043 211.681 36.3188C223.196 47.8332 232.329 61.5029 238.561 76.5473C244.793 91.5916 248 107.716 248 124C248 140.284 244.793 156.408 238.561 171.453C232.329 186.497 223.196 200.167 211.681 211.681C200.167 223.196 186.497 232.329 171.453 238.561C156.408 244.793 140.284 248 124 248V240.489C139.298 240.489 154.445 237.476 168.578 231.622C182.712 225.768 195.553 217.187 206.37 206.37C217.187 195.553 225.768 182.712 231.622 168.578C237.476 154.445 240.489 139.298 240.489 124C240.489 108.702 237.476 93.5547 231.622 79.4216C225.768 65.2885 217.187 52.4468 206.37 41.6298C195.553 30.8128 182.712 22.2322 168.578 16.3781C154.445 10.524 139.298 7.51091 124 7.51093V0Z"/>
</mask>
<path d="M124 0C140.284 0 156.408 3.20735 171.453 9.43893C186.497 15.6705 200.167 24.8043 211.681 36.3188C223.196 47.8332 232.329 61.5029 238.561 76.5473C244.793 91.5916 248 107.716 248 124C248 140.284 244.793 156.408 238.561 171.453C232.329 186.497 223.196 200.167 211.681 211.681C200.167 223.196 186.497 232.329 171.453 238.561C156.408 244.793 140.284 248 124 248V240.489C139.298 240.489 154.445 237.476 168.578 231.622C182.712 225.768 195.553 217.187 206.37 206.37C217.187 195.553 225.768 182.712 231.622 168.578C237.476 154.445 240.489 139.298 240.489 124C240.489 108.702 237.476 93.5547 231.622 79.4216C225.768 65.2885 217.187 52.4468 206.37 41.6298C195.553 30.8128 182.712 22.2322 168.578 16.3781C154.445 10.524 139.298 7.51091 124 7.51093V0Z" fill="white" stroke="black" stroke-width="2" mask="url(#path-1-inside-1_19_46)"/>
<rect x="28.5" y="272.5" width="225" height="23" fill="white" stroke="black"/>
<rect x="13.5" y="295.5" width="256" height="23" fill="#607BC4" stroke="black"/>
<circle cx="124" cy="124" r="95.5" fill="#607BC4" stroke="black"/>
<mask id="mask0_19_46" style="mask-type:alpha" maskUnits="userSpaceOnUse" x="28" y="28" width="192" height="192">
<circle cx="124" cy="124" r="95.5" fill="#607BC4" stroke="black"/>
</mask>
<g mask="url(#mask0_19_46)">
<path d="M78.2422 161.718C83.5978 149.157 101.402 149.157 106.758 161.718L110.646 170.836C112.523 175.24 116.22 178.611 120.778 180.075L124.414 181.242C138.761 185.85 138.761 206.15 124.414 210.758L120.778 211.925C116.22 213.389 112.523 216.76 110.646 221.164L106.758 230.282C101.402 242.843 83.5978 242.843 78.2422 230.282L74.3545 221.164C72.477 216.76 68.7795 213.389 64.2217 211.925L60.5859 210.758C46.2387 206.15 46.2387 185.85 60.5859 181.242L64.2217 180.075C68.7795 178.611 72.477 175.24 74.3545 170.836L78.2422 161.718Z" fill="white" stroke="black"/>
<path d="M170.597 31.9756C178.175 11.7201 206.826 11.7201 214.403 31.9756L214.871 33.2266C218.154 42.0013 226.539 47.8173 235.907 47.8174H241.242C261.208 47.8177 268.756 73.9242 251.871 84.5791C243.485 89.8708 240.021 100.453 243.492 109.732C250.471 128.388 229.948 145.673 213.156 135.077L205.699 130.372C197.635 125.284 187.365 125.284 179.301 130.372L171.844 135.077C155.052 145.673 134.529 128.388 141.508 109.732C144.979 100.453 141.515 89.8708 133.129 84.5791C116.244 73.9242 123.792 47.8177 143.758 47.8174H149.093C158.461 47.8173 166.846 42.0013 170.129 33.2266L170.597 31.9756Z" fill="white" stroke="black"/>
</g>
</svg>
