<svg width="247" height="548" viewBox="0 0 247 548" fill="none" xmlns="http://www.w3.org/2000/svg">
<rect x="0.579228" y="27.7742" width="156.61" height="527.593" transform="rotate(-10 0.579228 27.7742)" fill="#607BC4" stroke="black"/>
<path d="M79.3953 212.379L82.0459 197.695L83.7988 197.386L91.2918 210.281L89.5388 210.59L87.6532 207.267L81.7837 208.302L81.1286 212.073L79.3953 212.379ZM82.0399 206.876L86.9246 206.015L83.2806 199.63L82.0399 206.876ZM93.3414 209.92L90.9104 196.132L95.6571 195.295C96.9571 195.066 98.0368 195.201 98.8964 195.699C99.7668 196.182 100.29 196.922 100.466 197.92C100.6 198.682 100.504 199.362 100.176 199.961C99.8616 200.558 99.4252 201.001 98.8667 201.289C99.5031 201.366 100.055 201.54 100.522 201.809C100.989 202.079 101.369 202.425 101.66 202.848C101.949 203.257 102.143 203.744 102.242 204.309C102.377 205.07 102.338 205.774 102.127 206.421C101.916 207.067 101.513 207.619 100.916 208.076C100.331 208.518 99.5392 208.827 98.5412 209.003L93.3414 209.92ZM94.7528 208.249L97.786 207.714C98.7971 207.536 99.5479 207.187 100.038 206.667C100.542 206.145 100.713 205.425 100.551 204.505C100.386 203.573 99.9586 202.951 99.2674 202.64C98.5761 202.329 97.7578 202.256 96.8124 202.423L93.8186 202.951L94.7528 208.249ZM93.5859 201.631L96.56 201.107C97.4135 200.956 98.0353 200.644 98.4254 200.169C98.8132 199.681 98.9481 199.102 98.83 198.432C98.7073 197.736 98.3826 197.238 97.8559 196.938C97.3268 196.626 96.6159 196.548 95.723 196.705L92.8079 197.219L93.5859 201.631ZM111.495 206.962C110.444 207.148 109.468 207.137 108.565 206.931C107.66 206.711 106.855 206.332 106.151 205.793C105.446 205.253 104.86 204.578 104.392 203.767C103.937 202.954 103.621 202.042 103.443 201.03C103.264 200.019 103.25 199.054 103.399 198.134C103.561 197.212 103.881 196.377 104.359 195.629C104.836 194.882 105.457 194.258 106.222 193.757C106.997 193.242 107.917 192.89 108.981 192.702C110.031 192.517 111.001 192.529 111.891 192.737C112.791 192.931 113.594 193.297 114.298 193.836C115 194.362 115.586 195.037 116.057 195.862C116.525 196.673 116.85 197.597 117.033 198.634C117.216 199.671 117.227 200.658 117.067 201.593C116.905 202.515 116.585 203.35 116.108 204.098C115.628 204.832 114.999 205.451 114.221 205.954C113.454 206.441 112.545 206.777 111.495 206.962ZM111.238 205.505C112.315 205.315 113.191 204.91 113.867 204.29C114.543 203.67 115.003 202.898 115.246 201.975C115.502 201.05 115.534 200.036 115.339 198.933C115.14 197.804 114.763 196.855 114.208 196.086C113.663 195.302 112.968 194.741 112.123 194.402C111.279 194.064 110.318 193.99 109.241 194.18C108.177 194.367 107.308 194.771 106.632 195.391C105.956 196.011 105.49 196.784 105.233 197.709C104.974 198.621 104.942 199.629 105.136 200.732C105.329 201.822 105.705 202.764 106.264 203.559C106.822 204.341 107.524 204.907 108.372 205.259C109.219 205.61 110.174 205.692 111.238 205.505ZM125.66 204.465C124.452 204.678 123.431 204.607 122.597 204.253C121.76 203.886 121.094 203.334 120.598 202.595C120.114 201.841 119.788 200.992 119.621 200.046L118.086 191.34L119.74 191.049L121.279 199.774C121.515 201.113 122.008 202.028 122.758 202.519C123.508 203.01 124.402 203.163 125.439 202.98C126.476 202.798 127.257 202.349 127.781 201.633C128.304 200.918 128.448 199.891 128.212 198.552L126.673 189.826L128.328 189.535L129.863 198.24C130.041 199.251 130.04 200.125 129.858 200.861C129.676 201.597 129.365 202.214 128.925 202.711C128.498 203.206 127.999 203.599 127.427 203.889C126.853 204.166 126.264 204.358 125.66 204.465ZM136.791 202.258L134.6 189.83L130.483 190.556L130.243 189.197L140.131 187.453L140.371 188.812L136.254 189.538L138.445 201.967L136.791 202.258Z" fill="white"/>
<path d="M80.0763 219.696L146.255 208.027L149.389 225.801L111.682 249.119L155.007 257.661L158.141 275.435L91.9622 287.104L89.3283 272.167L129.13 265.148L94.8302 258.037L92.7131 246.03L122.607 227.599L82.7102 234.634L80.0763 219.696ZM93.5232 295.957L159.702 284.288L167.371 327.777L154.513 330.044L149.479 301.493L137.472 303.61L141.723 327.718L128.865 329.985L124.614 305.877L109.015 308.628L114.049 337.179L101.191 339.446L93.5232 295.957Z" fill="white"/>
<path d="M114.441 475.287L107.086 462.368L108.78 462.069L115.112 473.564L116.164 467.205L112.877 461.347L114.571 461.048L117.008 465.655L117.722 460.493L119.416 460.194L118.331 466.823L121.494 472.439L123.513 459.472L125.207 459.173L122.714 473.829L120.823 474.162L117.47 468.275L116.332 474.954L114.441 475.287ZM129.139 472.696L127.416 462.926L128.913 462.662L129.381 464.509C129.569 463.813 129.938 463.219 130.488 462.73C131.038 462.24 131.766 461.916 132.673 461.756L132.978 463.489L132.525 463.569C131.448 463.759 130.698 464.189 130.275 464.859C129.852 465.53 129.735 466.403 129.925 467.48L130.793 472.404L129.139 472.696ZM135.194 459.321C134.865 459.379 134.571 459.322 134.311 459.152C134.061 458.966 133.908 458.708 133.85 458.38C133.794 458.065 133.853 457.784 134.026 457.537C134.212 457.287 134.469 457.134 134.798 457.076C135.113 457.02 135.401 457.078 135.661 457.248C135.921 457.419 136.079 457.662 136.135 457.977C136.192 458.305 136.129 458.601 135.946 458.863C135.759 459.113 135.509 459.265 135.194 459.321ZM136.471 471.403L134.748 461.633L136.403 461.342L138.125 471.111L136.471 471.403ZM144.867 469.922C143.974 470.08 143.233 469.987 142.645 469.644C142.056 469.301 141.662 468.565 141.463 467.436L140.515 462.059L138.821 462.357L138.575 460.959L140.268 460.66L139.855 458.316L141.51 458.025L141.923 460.368L144.661 459.886L144.907 461.284L142.169 461.767L143.118 467.144C143.226 467.761 143.425 468.159 143.714 468.338C144.001 468.505 144.459 468.532 145.089 468.421L146.133 468.237L146.383 469.655L144.867 469.922ZM152.484 468.579C151.591 468.737 150.85 468.644 150.261 468.301C149.673 467.958 149.279 467.222 149.08 466.093L148.132 460.715L146.438 461.014L146.191 459.616L147.885 459.317L147.472 456.973L149.126 456.681L149.54 459.025L152.278 458.543L152.524 459.941L149.786 460.424L150.734 465.801C150.843 466.418 151.042 466.816 151.331 466.995C151.618 467.161 152.076 467.189 152.706 467.078L153.75 466.894L154 468.312L152.484 468.579ZM160.405 467.426C159.499 467.586 158.641 467.521 157.831 467.23C157.035 466.937 156.36 466.447 155.805 465.76C155.249 465.059 154.879 464.19 154.696 463.153C154.515 462.129 154.555 461.201 154.814 460.37C155.085 459.523 155.544 458.826 156.192 458.279C156.851 457.716 157.666 457.349 158.638 457.177C159.557 457.015 160.394 457.078 161.149 457.364C161.903 457.651 162.532 458.109 163.036 458.737C163.55 459.351 163.882 460.084 164.033 460.938C164.065 461.122 164.091 461.266 164.109 461.371C164.128 461.476 164.15 461.641 164.177 461.867L156.397 463.239C156.549 463.875 156.802 464.426 157.155 464.892C157.519 465.342 157.956 465.672 158.467 465.879C158.99 466.085 159.554 466.134 160.158 466.028C160.841 465.907 161.384 465.649 161.788 465.253C162.192 464.857 162.452 464.371 162.567 463.796L164.202 463.507C164.138 464.142 163.95 464.73 163.64 465.272C163.329 465.814 162.903 466.275 162.36 466.655C161.831 467.033 161.179 467.29 160.405 467.426ZM156.19 461.955L162.336 460.871C162.141 459.999 161.718 459.362 161.065 458.963C160.412 458.564 159.672 458.437 158.845 458.583C158.057 458.722 157.398 459.088 156.866 459.683C156.346 460.262 156.12 461.02 156.19 461.955ZM167.184 465.987L165.462 456.218L166.959 455.954L167.366 457.69C167.573 457.017 167.94 456.451 168.468 455.992C168.997 455.534 169.635 455.238 170.384 455.106C171.539 454.903 172.521 455.095 173.329 455.684C174.147 456.257 174.685 457.272 174.942 458.73L175.949 464.442L174.295 464.733L173.319 459.199C173.141 458.188 172.796 457.463 172.286 457.025C171.775 456.587 171.1 456.442 170.259 456.59C169.419 456.739 168.771 457.171 168.315 457.888C167.87 458.589 167.747 459.504 167.946 460.634L168.839 465.695L167.184 465.987ZM188.949 462.393C188.148 462.534 187.403 462.496 186.715 462.279C186.04 462.06 185.486 461.684 185.054 461.151L185.185 462.813L183.688 463.077L181.257 449.29L182.911 448.998L183.904 454.631C184.136 454.103 184.507 453.598 185.018 453.115C185.542 452.63 186.257 452.307 187.163 452.148C188.147 451.974 189.04 452.047 189.841 452.366C190.642 452.685 191.308 453.197 191.838 453.902C192.369 454.608 192.721 455.453 192.895 456.438C193.066 457.409 193.023 458.317 192.766 459.161C192.508 460.006 192.051 460.716 191.395 461.292C190.749 461.852 189.934 462.22 188.949 462.393ZM188.518 460.987C189.188 460.869 189.745 460.615 190.191 460.225C190.634 459.821 190.945 459.32 191.124 458.72C191.313 458.104 191.344 457.435 191.217 456.713C191.094 456.017 190.846 455.418 190.473 454.915C190.111 454.397 189.653 454.024 189.098 453.797C188.541 453.556 187.915 453.498 187.219 453.62C186.563 453.736 186.006 453.997 185.549 454.402C185.104 454.792 184.785 455.288 184.593 455.891C184.415 456.491 184.391 457.159 184.52 457.894C184.641 458.577 184.888 459.176 185.264 459.692C185.637 460.195 186.102 460.567 186.659 460.807C187.215 461.047 187.835 461.107 188.518 460.987ZM197.094 465.181L198.428 460.072L192.579 451.436L194.371 451.12L198.942 458.153L201.029 449.946L202.742 449.644L198.828 464.875L197.094 465.181Z" fill="white"/>
<path d="M120.275 521.984L126.447 486.777L135.003 485.268L152.892 516.232L144.997 517.624L141.472 511.178L129.182 513.346L128.027 520.617L120.275 521.984ZM130.212 507.023L138.39 505.581L132.104 494.26L130.212 507.023ZM165.48 514.598C163.148 515.009 160.954 515.006 158.898 514.588C156.868 514.134 155.134 513.237 153.696 511.899C152.284 510.523 151.319 508.646 150.802 506.268L158.649 504.884C158.97 505.965 159.586 506.88 160.498 507.629C161.441 508.372 162.701 508.605 164.276 508.327C165.632 508.088 166.587 507.611 167.143 506.896C167.731 506.175 167.939 505.326 167.767 504.349C167.689 503.908 167.538 503.512 167.314 503.161C167.121 502.806 166.789 502.49 166.318 502.216C165.842 501.91 165.145 501.643 164.227 501.415C163.341 501.181 162.166 500.966 160.702 500.769C157.973 500.406 155.787 499.8 154.143 498.953C152.498 498.105 151.266 497.104 150.445 495.949C149.655 494.789 149.144 493.547 148.91 492.223C148.564 490.074 148.786 488.199 149.576 486.598C150.36 484.965 151.555 483.633 153.161 482.603C154.766 481.572 156.64 480.868 158.783 480.49C160.926 480.112 162.947 480.146 164.845 480.591C166.769 480.999 168.41 481.831 169.769 483.086C171.127 484.341 172.011 486.038 172.421 488.175L164.385 489.592C164.203 488.747 163.699 488.007 162.872 487.373C162.046 486.739 160.955 486.541 159.6 486.78C158.628 486.984 157.843 487.415 157.244 488.073C156.672 488.694 156.468 489.477 156.635 490.422C156.78 491.242 157.251 491.889 158.05 492.366C158.849 492.843 159.923 493.222 161.273 493.504C162.654 493.78 164.245 494.052 166.047 494.319C167.417 494.532 168.643 494.852 169.725 495.279C170.834 495.668 171.788 496.199 172.589 496.87C173.384 497.509 174.041 498.287 174.56 499.203C175.079 500.119 175.447 501.191 175.664 502.42C176.019 504.437 175.81 506.294 175.037 507.99C174.296 509.68 173.102 511.109 171.455 512.277C169.803 513.413 167.812 514.186 165.48 514.598ZM177.886 511.825L184.058 476.619L192.614 475.11L210.503 506.074L202.609 507.466L199.084 501.02L186.793 503.187L185.638 510.458L177.886 511.825ZM187.823 496.864L196.001 495.422L189.716 484.102L187.823 496.864Z" fill="white"/>
<path d="M86.2978 64.9402L95.3692 108.842L118.586 68.6525L97.7018 109.862L141.757 89.1908L98.8953 111.967L146.962 118.71L98.4938 114.354L132.213 145.935L96.6508 116.11L103.142 160.467L94.0701 116.565L70.8538 156.754L91.7376 115.545L47.682 136.216L90.5441 113.44L42.477 106.697L90.9455 111.053L57.2269 79.4717L92.7886 109.297L86.2978 64.9402Z" fill="white"/>
</svg>
