<svg width="129" height="1024" viewBox="0 0 129 1024" fill="none" xmlns="http://www.w3.org/2000/svg">
<rect x="0.5" y="0.5" width="128" height="1023" fill="white" stroke="black"/>
<path d="M66 120.44H70.2C70.2 120.44 70.28 120.52 70.44 120.68C70.6267 120.84 70.88 121.08 71.2 121.4C71.5467 121.72 71.96 122.107 72.44 122.56C72.9467 123.04 73.52 123.587 74.16 124.2C74.8 124.84 75.52 125.533 76.32 126.28C77.7067 127.587 78.96 128.8 80.08 129.92C81.2 131.04 82.24 131.947 83.2 132.64C84.1867 133.333 85.12 133.68 86 133.68C87.0133 133.68 87.8 133.32 88.36 132.6C88.92 131.907 89.2 131.107 89.2 130.2C89.2 129.32 88.9867 128.6 88.56 128.04C88.16 127.507 87.64 127.107 87 126.84C86.36 126.6 85.68 126.48 84.96 126.48V120.4C87.12 120.48 88.8933 120.947 90.28 121.8C91.6933 122.653 92.7467 123.813 93.44 125.28C94.1333 126.747 94.48 128.44 94.48 130.36C94.48 132.653 94.0533 134.48 93.2 135.84C92.3733 137.227 91.3067 138.227 90 138.84C88.72 139.453 87.4 139.76 86.04 139.76C84.7067 139.76 83.48 139.48 82.36 138.92C81.24 138.387 80.0933 137.587 78.92 136.52C77.7733 135.48 76.44 134.2 74.92 132.68C74.92 132.68 74.8 132.56 74.56 132.32C74.32 132.08 74.0267 131.787 73.68 131.44C73.3333 131.093 72.9867 130.747 72.64 130.4C72.2933 130.053 72 129.76 71.76 129.52C71.52 129.28 71.4 129.16 71.4 129.16V140.28H66V120.44ZM65.52 152.623C65.52 150.063 66.16 148.009 67.44 146.463C68.72 144.916 70.4533 143.796 72.64 143.103C74.8267 142.409 77.28 142.063 80 142.063C82.72 142.063 85.1733 142.409 87.36 143.103C89.5467 143.796 91.28 144.916 92.56 146.463C93.84 148.009 94.48 150.063 94.48 152.623C94.48 155.183 93.8533 157.223 92.6 158.743C91.3467 160.289 89.6267 161.409 87.44 162.103C85.2533 162.796 82.7733 163.143 80 163.143C77.2267 163.143 74.7467 162.796 72.56 162.103C70.3733 161.409 68.6533 160.289 67.4 158.743C66.1467 157.223 65.52 155.183 65.52 152.623ZM71.12 152.623C71.12 154.063 71.9067 155.116 73.48 155.783C75.08 156.449 77.2533 156.783 80 156.783C82.7467 156.783 84.9067 156.449 86.48 155.783C88.08 155.116 88.88 154.063 88.88 152.623C88.88 151.183 88.08 150.116 86.48 149.423C84.9067 148.756 82.7467 148.423 80 148.423C77.2533 148.423 75.08 148.756 73.48 149.423C71.9067 150.116 71.12 151.183 71.12 152.623ZM66 165.206H70.2C70.2 165.206 70.28 165.286 70.44 165.446C70.6267 165.606 70.88 165.846 71.2 166.166C71.5467 166.486 71.96 166.872 72.44 167.326C72.9467 167.806 73.52 168.352 74.16 168.966C74.8 169.606 75.52 170.299 76.32 171.046C77.7067 172.352 78.96 173.566 80.08 174.686C81.2 175.806 82.24 176.712 83.2 177.406C84.1867 178.099 85.12 178.446 86 178.446C87.0133 178.446 87.8 178.086 88.36 177.366C88.92 176.672 89.2 175.872 89.2 174.966C89.2 174.086 88.9867 173.366 88.56 172.806C88.16 172.272 87.64 171.872 87 171.606C86.36 171.366 85.68 171.246 84.96 171.246V165.166C87.12 165.246 88.8933 165.712 90.28 166.566C91.6933 167.419 92.7467 168.579 93.44 170.046C94.1333 171.512 94.48 173.206 94.48 175.126C94.48 177.419 94.0533 179.246 93.2 180.606C92.3733 181.992 91.3067 182.992 90 183.606C88.72 184.219 87.4 184.526 86.04 184.526C84.7067 184.526 83.48 184.246 82.36 183.686C81.24 183.152 80.0933 182.352 78.92 181.286C77.7733 180.246 76.44 178.966 74.92 177.446C74.92 177.446 74.8 177.326 74.56 177.086C74.32 176.846 74.0267 176.552 73.68 176.206C73.3333 175.859 72.9867 175.512 72.64 175.166C72.2933 174.819 72 174.526 71.76 174.286C71.52 174.046 71.4 173.926 71.4 173.926V185.046H66V165.206ZM65.52 197.588C65.52 195.588 65.8667 193.815 66.56 192.268C67.2533 190.748 68.24 189.535 69.52 188.628C70.8267 187.722 72.3467 187.228 74.08 187.148V193.268C73.2267 193.482 72.48 193.975 71.84 194.748C71.2 195.522 70.88 196.455 70.88 197.548C70.88 198.348 71.0933 199.055 71.52 199.668C71.9467 200.308 72.52 200.815 73.24 201.188C73.9867 201.562 74.8133 201.748 75.72 201.748C77.1333 201.748 78.2267 201.348 79 200.548C79.8 199.775 80.2 198.802 80.2 197.628C80.2 196.642 79.9333 195.775 79.4 195.028C78.8933 194.308 78.28 193.802 77.56 193.508V187.468L94 189.868V205.948H88.48V194.508L83.36 193.468C83.8933 194.002 84.3333 194.735 84.68 195.668C85.0533 196.602 85.24 197.642 85.24 198.788C85.24 200.895 84.7733 202.588 83.84 203.868C82.9333 205.175 81.7733 206.162 80.36 206.828C79.6133 207.122 78.8533 207.348 78.08 207.508C77.3333 207.695 76.56 207.788 75.76 207.788C73.8667 207.788 72.1333 207.375 70.56 206.548C69.0133 205.722 67.7867 204.535 66.88 202.988C65.9733 201.468 65.52 199.668 65.52 197.588ZM66 218.81H94V229.93C94 231.85 93.6533 233.583 92.96 235.13C92.2667 236.676 91.2667 237.89 89.96 238.77C88.6533 239.676 87.0933 240.13 85.28 240.13C83.4933 240.13 81.9333 239.69 80.6 238.81C79.2933 237.956 78.28 236.756 77.56 235.21C76.84 233.69 76.48 231.93 76.48 229.93V225.13H66V218.81ZM81.88 225.13V229.77C81.88 231.263 82.2133 232.29 82.88 232.85C83.5733 233.436 84.3733 233.73 85.28 233.73C86.1333 233.73 86.8933 233.436 87.56 232.85C88.2533 232.29 88.6 231.263 88.6 229.77V225.13H81.88ZM66 241.371H85.84V247.531H82.76C83.7733 248.224 84.6133 249.104 85.28 250.171C85.9733 251.238 86.32 252.464 86.32 253.851H79.8V252.131C79.8 250.584 79.4533 249.424 78.76 248.651C78.0667 247.904 76.92 247.531 75.32 247.531H66V241.371ZM65.52 265.12C65.52 263.2 65.92 261.44 66.72 259.84C67.5467 258.267 68.7333 257 70.28 256.04C71.8267 255.107 73.7067 254.64 75.92 254.64C78.0267 254.64 79.8533 255.093 81.4 256C82.9467 256.933 84.1467 258.2 85 259.8C85.88 261.4 86.32 263.2 86.32 265.2C86.32 267.333 85.8667 269.187 84.96 270.76C84.08 272.333 82.8533 273.56 81.28 274.44C79.7333 275.32 77.9467 275.76 75.92 275.76C73.8133 275.76 71.9733 275.293 70.4 274.36C68.8533 273.427 67.6533 272.16 66.8 270.56C65.9467 268.96 65.52 267.147 65.52 265.12ZM70.88 265.16C70.88 266.04 71.0933 266.8 71.52 267.44C71.9467 268.08 72.5467 268.573 73.32 268.92C74.0933 269.293 74.9733 269.48 75.96 269.48C77.0533 269.48 77.96 269.28 78.68 268.88C79.4267 268.507 79.9867 267.987 80.36 267.32C80.7333 266.68 80.92 265.96 80.92 265.16C80.92 264.333 80.72 263.587 80.32 262.92C79.92 262.28 79.3467 261.773 78.6 261.4C77.8533 261.027 76.96 260.84 75.92 260.84C74.9333 260.84 74.0533 261.013 73.28 261.36C72.5333 261.733 71.9467 262.24 71.52 262.88C71.0933 263.52 70.88 264.28 70.88 265.16ZM57.2 274.383H62.44V275.863C62.44 276.476 62.5733 276.943 62.84 277.263C63.08 277.583 63.5067 277.743 64.12 277.743H85.84V283.903H64.2C62.6 283.903 61.2933 283.623 60.28 283.063C59.24 282.529 58.4667 281.729 57.96 280.663C57.4533 279.623 57.2 278.329 57.2 276.783V274.383ZM87.6 280.823C87.6 279.756 87.9733 278.849 88.72 278.103C89.4667 277.383 90.36 277.023 91.4 277.023C92.44 277.023 93.3333 277.383 94.08 278.103C94.8267 278.849 95.2 279.756 95.2 280.823C95.2 281.863 94.8267 282.756 94.08 283.503C93.3333 284.249 92.44 284.623 91.4 284.623C90.36 284.623 89.4667 284.249 88.72 283.503C87.9733 282.756 87.6 281.863 87.6 280.823ZM65.52 295.973C65.52 294.133 65.9067 292.439 66.68 290.893C67.48 289.346 68.6533 288.106 70.2 287.173C71.7467 286.239 73.6533 285.773 75.92 285.773C78.1867 285.773 80.0933 286.226 81.64 287.133C83.1867 288.039 84.3467 289.266 85.12 290.813C85.92 292.359 86.32 294.079 86.32 295.973C86.32 297.946 85.9067 299.679 85.08 301.173C84.28 302.693 83.12 303.879 81.6 304.733C80.1067 305.613 78.32 306.053 76.24 306.053C75.9733 306.053 75.68 306.039 75.36 306.013C75.0667 306.013 74.76 305.986 74.44 305.933V291.933C73.48 292.013 72.72 292.239 72.16 292.613C71.6 293.013 71.1867 293.493 70.92 294.053C70.68 294.639 70.56 295.213 70.56 295.773C70.56 296.546 70.72 297.199 71.04 297.733C71.36 298.266 71.8533 298.679 72.52 298.973V305.573C71.2667 305.279 70.1067 304.693 69.04 303.813C67.9733 302.933 67.12 301.826 66.48 300.493C65.84 299.186 65.52 297.679 65.52 295.973ZM77.88 291.933V299.693C78.9733 299.693 79.8267 299.333 80.44 298.613C81.0533 297.893 81.36 296.986 81.36 295.893C81.36 294.826 81.04 293.946 80.4 293.253C79.7867 292.559 78.9467 292.119 77.88 291.933ZM65.52 317.417C65.52 315.417 65.9467 313.657 66.8 312.137C67.6533 310.617 68.8533 309.417 70.4 308.537C71.9733 307.684 73.8133 307.257 75.92 307.257C77.9467 307.257 79.7333 307.671 81.28 308.497C82.8533 309.324 84.08 310.497 84.96 312.017C85.8667 313.537 86.32 315.337 86.32 317.417C86.32 319.764 85.7067 321.817 84.48 323.577C83.28 325.337 81.36 326.524 78.72 327.137V320.537C79.4933 320.271 80.0667 319.857 80.44 319.297C80.84 318.764 81.04 318.097 81.04 317.297C81.04 316.417 80.8 315.697 80.32 315.137C79.84 314.604 79.2133 314.204 78.44 313.937C77.6667 313.697 76.8267 313.577 75.92 313.577C75.04 313.577 74.2 313.697 73.4 313.937C72.6267 314.204 72 314.604 71.52 315.137C71.04 315.697 70.8 316.417 70.8 317.297C70.8 318.097 71 318.764 71.4 319.297C71.8 319.857 72.3733 320.271 73.12 320.537V327.137C71.4933 326.764 70.12 326.124 69 325.217C67.88 324.311 67.0133 323.191 66.4 321.857C65.8133 320.551 65.52 319.071 65.52 317.417ZM66 336.833C66 334.486 66.5733 332.713 67.72 331.513C68.8667 330.339 70.6267 329.753 73 329.753H80.76V327.673H85.84V329.753H90.76V335.913H85.84V339.953H80.76V335.913H72.92C72.2533 335.913 71.8 336.046 71.56 336.313C71.3467 336.606 71.24 337.086 71.24 337.753V339.953H66V336.833ZM65.52 350.679C65.52 349.239 65.7733 347.812 66.28 346.399C66.8133 345.012 67.5867 343.852 68.6 342.919C69.64 341.985 70.92 341.465 72.44 341.359V347.479C71.6933 347.585 71.1067 347.932 70.68 348.519C70.28 349.132 70.08 349.825 70.08 350.599C70.08 351.239 70.2 351.799 70.44 352.279C70.7067 352.785 71.1333 353.039 71.72 353.039C72.2 353.039 72.5733 352.812 72.84 352.359C73.1333 351.905 73.36 351.372 73.52 350.759C73.68 350.172 73.8133 349.652 73.92 349.199C74.24 347.945 74.6 346.772 75 345.679C75.4 344.585 75.9867 343.692 76.76 342.999C77.5333 342.332 78.6267 341.999 80.04 341.999C81.4 341.999 82.5467 342.372 83.48 343.119C84.4133 343.865 85.12 344.865 85.6 346.119C86.08 347.372 86.32 348.745 86.32 350.239C86.32 352.585 85.7333 354.519 84.56 356.039C83.4133 357.585 81.7067 358.492 79.44 358.759V353.039C80.24 352.905 80.8133 352.572 81.16 352.039C81.5333 351.505 81.72 350.839 81.72 350.039C81.72 349.452 81.6 348.932 81.36 348.479C81.1467 348.025 80.7467 347.799 80.16 347.799C79.68 347.799 79.2933 348.012 79 348.439C78.7333 348.892 78.5333 349.412 78.4 349.999C78.2667 350.585 78.1333 351.119 78 351.599C77.68 352.879 77.3067 354.052 76.88 355.119C76.4533 356.212 75.84 357.105 75.04 357.799C74.2667 358.492 73.1467 358.852 71.68 358.879C70.3733 358.879 69.2533 358.492 68.32 357.719C67.4133 356.972 66.72 355.972 66.24 354.719C65.76 353.492 65.52 352.145 65.52 350.679Z" fill="black"/>
<path d="M58.6445 48.5469C60.3424 41.9875 69.6576 41.9875 71.3555 48.5469C72.4152 52.6409 76.6297 55.069 80.7041 53.9395C87.2008 52.1385 91.8349 60.2533 87.0205 65.0605C84.0302 68.0461 84.0302 72.9539 87.0205 75.9395C91.8349 80.7467 87.2008 88.8615 80.7041 87.0605C76.6297 85.931 72.4152 88.3591 71.3555 92.4531C69.6576 99.0125 60.3424 99.0125 58.6445 92.4531C57.5848 88.3591 53.3703 85.931 49.2959 87.0605C42.7992 88.8615 38.1651 80.7467 42.9795 75.9395C45.9698 72.9539 45.9698 68.0461 42.9795 65.0605C38.1651 60.2533 42.7992 52.1385 49.2959 53.9395C53.3703 55.069 57.5848 52.6409 58.6445 48.5469Z" fill="#607BC4" stroke="black"/>
<path d="M33.616 128.504C33.616 126.989 33.8933 125.613 34.448 124.376C35.0027 123.16 35.8027 122.189 36.848 121.464C37.9147 120.76 39.2053 120.408 40.72 120.408V123.224C39.2267 123.224 38.0427 123.715 37.168 124.696C36.3147 125.677 35.888 126.947 35.888 128.504C35.888 129.869 36.2187 131 36.88 131.896C37.5413 132.813 38.48 133.272 39.696 133.272C40.528 133.272 41.1893 133.123 41.68 132.824C42.192 132.547 42.608 132.12 42.928 131.544C43.2693 130.968 43.5893 130.243 43.888 129.368C44.1867 128.493 44.5387 127.459 44.944 126.264C45.328 125.197 45.7653 124.28 46.256 123.512C46.7467 122.765 47.344 122.189 48.048 121.784C48.7733 121.379 49.6373 121.176 50.64 121.176C51.9627 121.155 53.072 121.453 53.968 122.072C54.8853 122.712 55.5787 123.565 56.048 124.632C56.5387 125.72 56.784 126.915 56.784 128.216C56.784 129.539 56.5387 130.723 56.048 131.768C55.5787 132.835 54.8747 133.688 53.936 134.328C53.0187 134.968 51.8987 135.299 50.576 135.32V132.504C51.7067 132.504 52.6347 132.099 53.36 131.288C54.1067 130.477 54.48 129.421 54.48 128.12C54.5227 126.968 54.2347 125.987 53.616 125.176C52.9973 124.365 52.0907 123.96 50.896 123.96C50.1067 123.96 49.4773 124.12 49.008 124.44C48.56 124.781 48.1653 125.357 47.824 126.168C47.4827 126.979 47.0667 128.099 46.576 129.528C46.2347 130.552 45.872 131.469 45.488 132.28C45.1253 133.091 44.688 133.773 44.176 134.328C43.6853 134.883 43.088 135.309 42.384 135.608C41.7013 135.907 40.8587 136.056 39.856 136.056C38.512 136.056 37.3707 135.704 36.432 135C35.5147 134.317 34.8107 133.4 34.32 132.248C33.8507 131.117 33.616 129.869 33.616 128.504ZM33.616 146.844C33.616 145.372 33.9573 144.039 34.64 142.844C35.3227 141.671 36.2827 140.743 37.52 140.06C38.7787 139.377 40.2507 139.036 41.936 139.036C43.6 139.036 45.0507 139.356 46.288 139.996C47.5467 140.657 48.5173 141.575 49.2 142.748C49.904 143.943 50.256 145.329 50.256 146.908C50.256 148.401 49.9253 149.703 49.264 150.812C48.6027 151.921 47.7067 152.785 46.576 153.404C45.4667 154.044 44.2187 154.364 42.832 154.364C42.5333 154.364 42.2987 154.364 42.128 154.364C41.9573 154.364 41.6907 154.353 41.328 154.332V141.692C40.2827 141.756 39.344 142.001 38.512 142.428C37.7013 142.876 37.0613 143.473 36.592 144.22C36.1227 144.988 35.888 145.863 35.888 146.844C35.888 147.953 36.144 148.881 36.656 149.628C37.168 150.375 37.8613 150.919 38.736 151.26V153.916C37.7547 153.639 36.88 153.18 36.112 152.54C35.344 151.9 34.736 151.1 34.288 150.14C33.84 149.201 33.616 148.103 33.616 146.844ZM43.408 141.724V151.708C44.8373 151.644 45.9573 151.153 46.768 150.236C47.5787 149.319 47.984 148.188 47.984 146.844C47.984 145.564 47.5893 144.423 46.8 143.42C46.032 142.439 44.9013 141.873 43.408 141.724ZM34 157.927H56.4V160.615H34V157.927ZM34 165.885H47.6V163.485H49.872V165.885H51.984C53.52 165.885 54.64 166.269 55.344 167.036C56.048 167.805 56.4 168.925 56.4 170.397V171.997H54.096V170.812C54.096 170.002 53.9253 169.426 53.584 169.085C53.264 168.743 52.7093 168.573 51.92 168.573H49.872V172.477H47.6V168.573H34V165.885ZM26.96 184.146H49.872V186.578L47.248 186.834C48.016 187.346 48.7093 188.071 49.328 189.01C49.9467 189.97 50.256 191.186 50.256 192.658C50.256 194.258 49.8933 195.644 49.168 196.818C48.4427 197.991 47.4507 198.898 46.192 199.538C44.9333 200.178 43.504 200.498 41.904 200.498C40.3253 200.498 38.9067 200.178 37.648 199.538C36.3893 198.898 35.3973 197.98 34.672 196.786C33.968 195.612 33.616 194.226 33.616 192.626C33.616 191.324 33.8827 190.162 34.416 189.138C34.9493 188.135 35.696 187.367 36.656 186.834H26.96V184.146ZM35.952 192.338C35.952 193.426 36.1973 194.375 36.688 195.186C37.2 195.996 37.904 196.626 38.8 197.074C39.7173 197.543 40.7627 197.778 41.936 197.778C43.0667 197.778 44.08 197.554 44.976 197.106C45.8933 196.679 46.608 196.06 47.12 195.25C47.6533 194.439 47.92 193.468 47.92 192.338C47.92 191.271 47.664 190.322 47.152 189.49C46.6613 188.679 45.968 188.039 45.072 187.57C44.176 187.122 43.1307 186.898 41.936 186.898C40.8267 186.898 39.8133 187.122 38.896 187.57C38 188.018 37.2853 188.647 36.752 189.458C36.2187 190.268 35.952 191.228 35.952 192.338ZM34 204.239H49.872L49.872 206.671L46.832 206.895C47.8773 207.386 48.7093 208.133 49.328 209.135C49.9467 210.138 50.256 211.375 50.256 212.847H47.44V212.111C47.44 210.362 46.9707 209.061 46.032 208.207C45.0933 207.354 43.7493 206.927 42 206.927H34L34 204.239ZM33.616 222.599C33.616 221.148 33.936 219.815 34.576 218.599C35.2373 217.383 36.1867 216.412 37.424 215.687C38.6827 214.961 40.1973 214.599 41.968 214.599C43.6533 214.599 45.1147 214.951 46.352 215.655C47.5893 216.38 48.5493 217.351 49.232 218.567C49.9147 219.804 50.256 221.191 50.256 222.727C50.256 224.199 49.936 225.543 49.296 226.759C48.656 227.996 47.7173 228.988 46.48 229.735C45.2427 230.481 43.7387 230.855 41.968 230.855C40.3467 230.855 38.9067 230.503 37.648 229.799C36.3893 229.095 35.3973 228.113 34.672 226.855C33.968 225.617 33.616 224.199 33.616 222.599ZM35.952 222.599C35.952 223.644 36.1973 224.583 36.688 225.415C37.2 226.247 37.904 226.908 38.8 227.399C39.696 227.889 40.752 228.135 41.968 228.135C43.12 228.135 44.144 227.921 45.04 227.495C45.936 227.068 46.64 226.449 47.152 225.639C47.664 224.828 47.92 223.847 47.92 222.695C47.92 221.521 47.6533 220.529 47.12 219.719C46.5867 218.929 45.872 218.332 44.976 217.927C44.08 217.521 43.0773 217.319 41.968 217.319C40.56 217.319 39.408 217.575 38.512 218.087C37.6373 218.599 36.9867 219.26 36.56 220.071C36.1547 220.881 35.952 221.724 35.952 222.599ZM26.96 231.479H29.264V232.727C29.264 233.516 29.4347 234.082 29.776 234.423C30.096 234.786 30.6507 234.967 31.44 234.967H49.872V237.655H31.376C30.352 237.655 29.52 237.484 28.88 237.143C28.2187 236.802 27.7387 236.29 27.44 235.607C27.12 234.946 26.96 234.124 26.96 233.143V231.479ZM53.392 236.343C53.392 235.831 53.5627 235.394 53.904 235.031C54.2667 234.668 54.7147 234.487 55.248 234.487C55.76 234.487 56.1867 234.668 56.528 235.031C56.8693 235.394 57.04 235.831 57.04 236.343C57.04 236.855 56.8693 237.282 56.528 237.623C56.1867 237.986 55.76 238.167 55.248 238.167C54.7147 238.167 54.2667 237.986 53.904 237.623C53.5627 237.282 53.392 236.855 53.392 236.343ZM33.616 249.469C33.616 247.997 33.9573 246.664 34.64 245.469C35.3227 244.296 36.2827 243.368 37.52 242.685C38.7787 242.002 40.2507 241.661 41.936 241.661C43.6 241.661 45.0507 241.981 46.288 242.621C47.5467 243.282 48.5173 244.2 49.2 245.373C49.904 246.568 50.256 247.954 50.256 249.533C50.256 251.026 49.9253 252.328 49.264 253.437C48.6027 254.546 47.7067 255.41 46.576 256.029C45.4667 256.669 44.2187 256.989 42.832 256.989C42.5333 256.989 42.2987 256.989 42.128 256.989C41.9573 256.989 41.6907 256.978 41.328 256.957V244.317C40.2827 244.381 39.344 244.626 38.512 245.053C37.7013 245.501 37.0613 246.098 36.592 246.845C36.1227 247.613 35.888 248.488 35.888 249.469C35.888 250.578 36.144 251.506 36.656 252.253C37.168 253 37.8613 253.544 38.736 253.885V256.541C37.7547 256.264 36.88 255.805 36.112 255.165C35.344 254.525 34.736 253.725 34.288 252.765C33.84 251.826 33.616 250.728 33.616 249.469ZM43.408 244.349V254.333C44.8373 254.269 45.9573 253.778 46.768 252.861C47.5787 251.944 47.984 250.813 47.984 249.469C47.984 248.189 47.5893 247.048 46.8 246.045C46.032 245.064 44.9013 244.498 43.408 244.349ZM33.616 267.848C33.616 266.354 33.9573 265 34.64 263.784C35.3227 262.589 36.2827 261.64 37.52 260.936C38.7787 260.232 40.2507 259.88 41.936 259.88C43.5787 259.88 45.0187 260.221 46.256 260.904C47.5147 261.586 48.496 262.525 49.2 263.72C49.904 264.914 50.256 266.29 50.256 267.848C50.256 269.725 49.7653 271.304 48.784 272.584C47.8027 273.885 46.4907 274.706 44.848 275.048V272.296C45.8293 272.082 46.5867 271.56 47.12 270.728C47.6747 269.896 47.952 268.925 47.952 267.816C47.952 266.685 47.6747 265.736 47.12 264.968C46.5653 264.2 45.8293 263.613 44.912 263.208C43.9947 262.824 43.0027 262.632 41.936 262.632C40.7627 262.632 39.7173 262.856 38.8 263.304C37.8827 263.752 37.168 264.36 36.656 265.128C36.144 265.917 35.888 266.813 35.888 267.816C35.888 268.925 36.1547 269.896 36.688 270.728C37.2427 271.56 38.0213 272.082 39.024 272.296V275.048C37.9573 274.834 37.0187 274.397 36.208 273.736C35.3973 273.074 34.7573 272.242 34.288 271.24C33.84 270.237 33.616 269.106 33.616 267.848ZM34 284.761C34 283.311 34.352 282.169 35.056 281.337C35.76 280.505 37.0293 280.089 38.864 280.089H47.6V277.337H49.872V280.089H53.68V282.777H49.872V287.225H47.6V282.777H38.864C37.8613 282.777 37.1787 282.98 36.816 283.385C36.4747 283.791 36.304 284.505 36.304 285.529V287.225H34V284.761ZM33.616 296.944C33.616 295.686 33.8293 294.555 34.256 293.552C34.704 292.55 35.3227 291.739 36.112 291.12C36.9227 290.523 37.872 290.15 38.96 290V292.752C38.128 292.923 37.4027 293.36 36.784 294.064C36.1867 294.79 35.888 295.76 35.888 296.976C35.888 298.107 36.1227 298.939 36.592 299.472C37.0827 300.006 37.6587 300.272 38.32 300.272C38.96 300.272 39.4507 300.112 39.792 299.792C40.1333 299.494 40.3893 299.046 40.56 298.448C40.752 297.872 40.9333 297.158 41.104 296.304C41.296 295.408 41.552 294.534 41.872 293.68C42.2133 292.827 42.672 292.123 43.248 291.568C43.824 291.014 44.5813 290.736 45.52 290.736C46.4587 290.736 47.28 290.971 47.984 291.44C48.688 291.91 49.2427 292.571 49.648 293.424C50.0533 294.299 50.256 295.323 50.256 296.496C50.256 298.182 49.8293 299.558 48.976 300.624C48.144 301.712 46.9493 302.342 45.392 302.512V299.856C46.2027 299.75 46.832 299.398 47.28 298.8C47.7493 298.224 47.984 297.446 47.984 296.464C47.984 295.504 47.7813 294.758 47.376 294.224C46.9707 293.712 46.4373 293.456 45.776 293.456C45.3493 293.456 44.9867 293.606 44.688 293.904C44.3893 294.203 44.1333 294.63 43.92 295.184C43.7067 295.76 43.5147 296.432 43.344 297.2C43.1307 298.267 42.864 299.238 42.544 300.112C42.224 300.987 41.7547 301.691 41.136 302.224C40.5387 302.758 39.6747 303.024 38.544 303.024C37.6053 303.046 36.7627 302.8 36.016 302.288C35.2693 301.798 34.6827 301.094 34.256 300.176C33.8293 299.28 33.616 298.203 33.616 296.944ZM30.192 304.72L37.264 306.576V309.36L30.192 306.576V304.72ZM26.576 327.325C26.576 326.066 26.736 324.861 27.056 323.709C27.376 322.557 27.92 321.618 28.688 320.893C29.4347 320.189 30.4373 319.837 31.696 319.837C32.5707 319.837 33.296 320.039 33.872 320.445C34.448 320.85 34.8853 321.383 35.184 322.045C35.4827 321.533 35.856 321.117 36.304 320.797C36.752 320.477 37.264 320.317 37.84 320.317C39.12 320.317 40.1547 320.893 40.944 322.045C41.4347 321.618 41.9787 321.277 42.576 321.021C43.1947 320.786 43.8773 320.669 44.624 320.669C45.7973 320.669 46.8 320.935 47.632 321.469C48.4853 322.023 49.136 322.77 49.584 323.709C50.032 324.669 50.256 325.757 50.256 326.973C50.256 327.869 50.128 328.711 49.872 329.501V334.909H47.6V332.445C47.1733 332.722 46.704 332.925 46.192 333.053C45.7013 333.202 45.1787 333.277 44.624 333.277C43.408 333.277 42.384 332.989 41.552 332.413C40.72 331.858 40.08 331.101 39.632 330.141C39.2053 329.202 38.992 328.146 38.992 326.973C38.992 326.375 39.056 325.831 39.184 325.341C39.312 324.85 39.4933 324.359 39.728 323.869C39.4507 323.314 39.024 323.036 38.448 323.036C37.3813 323.036 36.848 323.933 36.848 325.725V328.381C36.848 329.575 36.688 330.631 36.368 331.549C36.0693 332.466 35.568 333.181 34.864 333.693C34.1813 334.226 33.2427 334.493 32.048 334.493C30.832 334.493 29.8187 334.151 29.008 333.469C28.1973 332.786 27.5893 331.901 27.184 330.813C26.7787 329.725 26.576 328.562 26.576 327.325ZM28.816 327.26C28.816 328.541 29.0613 329.629 29.552 330.525C30.0213 331.421 30.7467 331.869 31.728 331.869C33.5627 331.869 34.48 330.759 34.48 328.541V325.821C34.48 324.775 34.256 323.954 33.808 323.357C33.3387 322.759 32.6453 322.461 31.728 322.461C31.024 322.461 30.4587 322.685 30.032 323.133C29.6053 323.581 29.296 324.167 29.104 324.893C28.912 325.618 28.816 326.407 28.816 327.26ZM41.232 326.909C41.232 328.018 41.552 328.925 42.192 329.629C42.832 330.333 43.6427 330.685 44.624 330.685C45.6053 330.685 46.416 330.333 47.056 329.629C47.696 328.925 48.016 328.018 48.016 326.909C48.016 325.799 47.696 324.903 47.056 324.221C46.416 323.559 45.6053 323.229 44.624 323.229C43.6427 323.229 42.832 323.549 42.192 324.189C41.552 324.85 41.232 325.757 41.232 326.909ZM34 337.958H49.872V340.39L46.832 340.614C47.8773 341.105 48.7093 341.851 49.328 342.854C49.9467 343.857 50.256 345.094 50.256 346.566H47.44V345.83C47.44 344.081 46.9707 342.779 46.032 341.926C45.0933 341.073 43.7493 340.646 42 340.646H34V337.958ZM33.616 356.317C33.616 354.867 33.936 353.533 34.576 352.317C35.2373 351.101 36.1867 350.131 37.424 349.405C38.6827 348.68 40.1973 348.317 41.968 348.317C43.6533 348.317 45.1147 348.669 46.352 349.373C47.5893 350.099 48.5493 351.069 49.232 352.285C49.9147 353.523 50.256 354.909 50.256 356.445C50.256 357.917 49.936 359.261 49.296 360.477C48.656 361.715 47.7173 362.707 46.48 363.453C45.2427 364.2 43.7387 364.573 41.968 364.573C40.3467 364.573 38.9067 364.221 37.648 363.517C36.3893 362.813 35.3973 361.832 34.672 360.573C33.968 359.336 33.616 357.917 33.616 356.317ZM35.952 356.317C35.952 357.363 36.1973 358.301 36.688 359.133C37.2 359.965 37.904 360.627 38.8 361.117C39.696 361.608 40.752 361.853 41.968 361.853C43.12 361.853 44.144 361.64 45.04 361.213C45.936 360.787 46.64 360.168 47.152 359.357C47.664 358.547 47.92 357.565 47.92 356.413C47.92 355.24 47.6533 354.248 47.12 353.437C46.5867 352.648 45.872 352.051 44.976 351.645C44.08 351.24 43.0773 351.037 41.968 351.037C40.56 351.037 39.408 351.293 38.512 351.805C37.6373 352.317 36.9867 352.979 36.56 353.789C36.1547 354.6 35.952 355.443 35.952 356.317ZM33.616 374.126C33.616 372.888 33.8613 371.8 34.352 370.862C34.864 369.944 35.632 369.23 36.656 368.718C37.7013 368.206 39.0133 367.95 40.592 367.95H49.872V370.638H40.88C39.2373 370.638 38 370.979 37.168 371.662C36.336 372.344 35.92 373.368 35.92 374.734C35.92 376.099 36.4107 377.23 37.392 378.126C38.3947 379.043 39.8133 379.502 41.648 379.502H49.872V382.19H34V379.758L36.848 379.598C35.8453 379.086 35.056 378.35 34.48 377.39C33.904 376.43 33.616 375.342 33.616 374.126ZM26.96 386.614H49.872V389.046L47.248 389.302C48.016 389.814 48.7093 390.54 49.328 391.478C49.9467 392.438 50.256 393.654 50.256 395.126C50.256 396.726 49.8933 398.113 49.168 399.286C48.4427 400.46 47.4507 401.366 46.192 402.006C44.9333 402.646 43.504 402.966 41.904 402.966C40.3253 402.966 38.9067 402.646 37.648 402.006C36.3893 401.366 35.3973 400.449 34.672 399.254C33.968 398.081 33.616 396.694 33.616 395.094C33.616 393.793 33.8827 392.63 34.416 391.606C34.9493 390.604 35.696 389.836 36.656 389.302H26.96V386.614ZM35.952 394.806C35.952 395.894 36.1973 396.844 36.688 397.654C37.2 398.465 37.904 399.094 38.8 399.542C39.7173 400.012 40.7627 400.246 41.936 400.246C43.0667 400.246 44.08 400.022 44.976 399.574C45.8933 399.148 46.608 398.529 47.12 397.718C47.6533 396.908 47.92 395.937 47.92 394.806C47.92 393.74 47.664 392.79 47.152 391.958C46.6613 391.148 45.968 390.508 45.072 390.038C44.176 389.59 43.1307 389.366 41.936 389.366C40.8267 389.366 39.8133 389.59 38.896 390.038C38 390.486 37.2853 391.116 36.752 391.926C36.2187 392.737 35.952 393.697 35.952 394.806ZM26.96 415.177H49.872V417.609L47.248 417.865C48.016 418.377 48.7093 419.102 49.328 420.041C49.9467 421.001 50.256 422.217 50.256 423.689C50.256 425.289 49.8933 426.675 49.168 427.849C48.4427 429.022 47.4507 429.929 46.192 430.569C44.9333 431.209 43.504 431.529 41.904 431.529C40.3253 431.529 38.9067 431.209 37.648 430.569C36.3893 429.929 35.3973 429.011 34.672 427.817C33.968 426.643 33.616 425.257 33.616 423.657C33.616 422.355 33.8827 421.193 34.416 420.169C34.9493 419.166 35.696 418.398 36.656 417.865H26.96V415.177ZM35.952 423.369C35.952 424.457 36.1973 425.406 36.688 426.217C37.2 427.027 37.904 427.657 38.8 428.105C39.7173 428.574 40.7627 428.809 41.936 428.809C43.0667 428.809 44.08 428.585 44.976 428.137C45.8933 427.71 46.608 427.091 47.12 426.281C47.6533 425.47 47.92 424.499 47.92 423.369C47.92 422.302 47.664 421.353 47.152 420.521C46.6613 419.71 45.968 419.07 45.072 418.601C44.176 418.153 43.1307 417.929 41.936 417.929C40.8267 417.929 39.8133 418.153 38.896 418.601C38 419.049 37.2853 419.678 36.752 420.489C36.2187 421.299 35.952 422.259 35.952 423.369ZM34 435.271H49.872V437.703L46.832 437.927C47.8773 438.417 48.7093 439.164 49.328 440.167C49.9467 441.169 50.256 442.407 50.256 443.879H47.44V443.143C47.44 441.393 46.9707 440.092 46.032 439.239C45.0933 438.385 43.7493 437.959 42 437.959H34V435.271ZM33.616 453.63C33.616 452.179 33.936 450.846 34.576 449.63C35.2373 448.414 36.1867 447.443 37.424 446.718C38.6827 445.992 40.1973 445.63 41.968 445.63C43.6533 445.63 45.1147 445.982 46.352 446.686C47.5893 447.411 48.5493 448.382 49.232 449.598C49.9147 450.835 50.256 452.222 50.256 453.758C50.256 455.23 49.936 456.574 49.296 457.79C48.656 459.027 47.7173 460.019 46.48 460.766C45.2427 461.512 43.7387 461.886 41.968 461.886C40.3467 461.886 38.9067 461.534 37.648 460.83C36.3893 460.126 35.3973 459.144 34.672 457.886C33.968 456.648 33.616 455.23 33.616 453.63ZM35.952 453.63C35.952 454.675 36.1973 455.614 36.688 456.446C37.2 457.278 37.904 457.939 38.8 458.43C39.696 458.92 40.752 459.166 41.968 459.166C43.12 459.166 44.144 458.952 45.04 458.526C45.936 458.099 46.64 457.48 47.152 456.67C47.664 455.859 47.92 454.878 47.92 453.726C47.92 452.552 47.6533 451.56 47.12 450.75C46.5867 449.96 45.872 449.363 44.976 448.958C44.08 448.552 43.0773 448.35 41.968 448.35C40.56 448.35 39.408 448.606 38.512 449.118C37.6373 449.63 36.9867 450.291 36.56 451.102C36.1547 451.912 35.952 452.755 35.952 453.63ZM26.96 462.51H29.264V463.758C29.264 464.548 29.4347 465.113 29.776 465.454C30.096 465.817 30.6507 465.998 31.44 465.998H49.872V468.686H31.376C30.352 468.686 29.52 468.516 28.88 468.174C28.2187 467.833 27.7387 467.321 27.44 466.638C27.12 465.977 26.96 465.156 26.96 464.174V462.51ZM53.392 467.374C53.392 466.862 53.5627 466.425 53.904 466.062C54.2667 465.7 54.7147 465.518 55.248 465.518C55.76 465.518 56.1867 465.7 56.528 466.062C56.8693 466.425 57.04 466.862 57.04 467.374C57.04 467.886 56.8693 468.313 56.528 468.654C56.1867 469.017 55.76 469.198 55.248 469.198C54.7147 469.198 54.2667 469.017 53.904 468.654C53.5627 468.313 53.392 467.886 53.392 467.374ZM33.616 480.5C33.616 479.028 33.9573 477.695 34.64 476.5C35.3227 475.327 36.2827 474.399 37.52 473.716C38.7787 473.034 40.2507 472.692 41.936 472.692C43.6 472.692 45.0507 473.012 46.288 473.652C47.5467 474.314 48.5173 475.231 49.2 476.404C49.904 477.599 50.256 478.986 50.256 480.564C50.256 482.058 49.9253 483.359 49.264 484.468C48.6027 485.578 47.7067 486.442 46.576 487.06C45.4667 487.7 44.2187 488.02 42.832 488.02C42.5333 488.02 42.2987 488.02 42.128 488.02C41.9573 488.02 41.6907 488.01 41.328 487.988V475.348C40.2827 475.412 39.344 475.658 38.512 476.084C37.7013 476.532 37.0613 477.13 36.592 477.876C36.1227 478.644 35.888 479.519 35.888 480.5C35.888 481.61 36.144 482.538 36.656 483.284C37.168 484.031 37.8613 484.575 38.736 484.916V487.572C37.7547 487.295 36.88 486.836 36.112 486.196C35.344 485.556 34.736 484.756 34.288 483.796C33.84 482.858 33.616 481.759 33.616 480.5ZM43.408 475.38V485.364C44.8373 485.3 45.9573 484.81 46.768 483.892C47.5787 482.975 47.984 481.844 47.984 480.5C47.984 479.22 47.5893 478.079 46.8 477.076C46.032 476.095 44.9013 475.53 43.408 475.38ZM33.616 498.879C33.616 497.386 33.9573 496.031 34.64 494.815C35.3227 493.62 36.2827 492.671 37.52 491.967C38.7787 491.263 40.2507 490.911 41.936 490.911C43.5787 490.911 45.0187 491.252 46.256 491.935C47.5147 492.618 48.496 493.556 49.2 494.751C49.904 495.946 50.256 497.322 50.256 498.879C50.256 500.756 49.7653 502.335 48.784 503.615C47.8027 504.916 46.4907 505.738 44.848 506.079V503.327C45.8293 503.114 46.5867 502.591 47.12 501.759C47.6747 500.927 47.952 499.956 47.952 498.847C47.952 497.716 47.6747 496.767 47.12 495.999C46.5653 495.231 45.8293 494.644 44.912 494.239C43.9947 493.855 43.0027 493.663 41.936 493.663C40.7627 493.663 39.7173 493.887 38.8 494.335C37.8827 494.783 37.168 495.391 36.656 496.159C36.144 496.948 35.888 497.844 35.888 498.847C35.888 499.956 36.1547 500.927 36.688 501.759C37.2427 502.591 38.0213 503.114 39.024 503.327V506.079C37.9573 505.866 37.0187 505.428 36.208 504.767C35.3973 504.106 34.7573 503.274 34.288 502.271C33.84 501.268 33.616 500.138 33.616 498.879ZM34 515.793C34 514.342 34.352 513.201 35.056 512.369C35.76 511.537 37.0293 511.121 38.864 511.121H47.6V508.368H49.872V511.121H53.68V513.809H49.872V518.257H47.6V513.809H38.864C37.8613 513.809 37.1787 514.011 36.816 514.417C36.4747 514.822 36.304 515.537 36.304 516.561V518.257H34V515.793ZM33.616 527.976C33.616 526.717 33.8293 525.586 34.256 524.584C34.704 523.581 35.3227 522.77 36.112 522.152C36.9227 521.554 37.872 521.181 38.96 521.032V523.784C38.128 523.954 37.4027 524.392 36.784 525.096C36.1867 525.821 35.888 526.792 35.888 528.008C35.888 529.138 36.1227 529.97 36.592 530.504C37.0827 531.037 37.6587 531.304 38.32 531.304C38.96 531.304 39.4507 531.144 39.792 530.824C40.1333 530.525 40.3893 530.077 40.56 529.48C40.752 528.904 40.9333 528.189 41.104 527.336C41.296 526.44 41.552 525.565 41.872 524.712C42.2133 523.858 42.672 523.154 43.248 522.6C43.824 522.045 44.5813 521.768 45.52 521.768C46.4587 521.768 47.28 522.002 47.984 522.472C48.688 522.941 49.2427 523.602 49.648 524.456C50.0533 525.33 50.256 526.354 50.256 527.528C50.256 529.213 49.8293 530.589 48.976 531.656C48.144 532.744 46.9493 533.373 45.392 533.544V530.888C46.2027 530.781 46.832 530.429 47.28 529.832C47.7493 529.256 47.984 528.477 47.984 527.496C47.984 526.536 47.7813 525.789 47.376 525.256C46.9707 524.744 46.4373 524.488 45.776 524.488C45.3493 524.488 44.9867 524.637 44.688 524.936C44.3893 525.234 44.1333 525.661 43.92 526.216C43.7067 526.792 43.5147 527.464 43.344 528.232C43.1307 529.298 42.864 530.269 42.544 531.144C42.224 532.018 41.7547 532.722 41.136 533.256C40.5387 533.789 39.6747 534.056 38.544 534.056C37.6053 534.077 36.7627 533.832 36.016 533.32C35.2693 532.829 34.6827 532.125 34.256 531.208C33.8293 530.312 33.616 529.234 33.616 527.976ZM30.192 535.752L37.264 537.608V540.391L30.192 537.608V535.752ZM33.616 558.132C33.616 556.873 33.8293 555.742 34.256 554.74C34.704 553.737 35.3227 552.926 36.112 552.308C36.9227 551.71 37.872 551.337 38.96 551.188V553.94C38.128 554.11 37.4027 554.548 36.784 555.252C36.1867 555.977 35.888 556.948 35.888 558.164C35.888 559.294 36.1227 560.126 36.592 560.66C37.0827 561.193 37.6587 561.46 38.32 561.46C38.96 561.46 39.4507 561.3 39.792 560.98C40.1333 560.681 40.3893 560.233 40.56 559.636C40.752 559.06 40.9333 558.345 41.104 557.492C41.296 556.596 41.552 555.721 41.872 554.868C42.2133 554.014 42.672 553.31 43.248 552.756C43.824 552.201 44.5813 551.924 45.52 551.924C46.4587 551.924 47.28 552.158 47.984 552.628C48.688 553.097 49.2427 553.758 49.648 554.612C50.0533 555.486 50.256 556.51 50.256 557.684C50.256 559.369 49.8293 560.745 48.976 561.812C48.144 562.9 46.9493 563.529 45.392 563.7V561.044C46.2027 560.937 46.832 560.585 47.28 559.988C47.7493 559.412 47.984 558.633 47.984 557.652C47.984 556.692 47.7813 555.945 47.376 555.412C46.9707 554.9 46.4373 554.644 45.776 554.644C45.3493 554.644 44.9867 554.793 44.688 555.092C44.3893 555.39 44.1333 555.817 43.92 556.372C43.7067 556.948 43.5147 557.62 43.344 558.388C43.1307 559.454 42.864 560.425 42.544 561.3C42.224 562.174 41.7547 562.878 41.136 563.412C40.5387 563.945 39.6747 564.212 38.544 564.212C37.6053 564.233 36.7627 563.988 36.016 563.476C35.2693 562.985 34.6827 562.281 34.256 561.364C33.8293 560.468 33.616 559.39 33.616 558.132ZM33.616 575.348C33.616 573.854 33.9573 572.5 34.64 571.284C35.3227 570.089 36.2827 569.14 37.52 568.436C38.7787 567.732 40.2507 567.38 41.936 567.38C43.5787 567.38 45.0187 567.721 46.256 568.404C47.5147 569.086 48.496 570.025 49.2 571.22C49.904 572.414 50.256 573.79 50.256 575.348C50.256 577.225 49.7653 578.804 48.784 580.084C47.8027 581.385 46.4907 582.206 44.848 582.548V579.796C45.8293 579.582 46.5867 579.06 47.12 578.228C47.6747 577.396 47.952 576.425 47.952 575.316C47.952 574.185 47.6747 573.236 47.12 572.468C46.5653 571.7 45.8293 571.113 44.912 570.708C43.9947 570.324 43.0027 570.132 41.936 570.132C40.7627 570.132 39.7173 570.356 38.8 570.804C37.8827 571.252 37.168 571.86 36.656 572.628C36.144 573.417 35.888 574.313 35.888 575.316C35.888 576.425 36.1547 577.396 36.688 578.228C37.2427 579.06 38.0213 579.582 39.024 579.796V582.548C37.9573 582.334 37.0187 581.897 36.208 581.236C35.3973 580.574 34.7573 579.742 34.288 578.74C33.84 577.737 33.616 576.606 33.616 575.348ZM34 586.302H56.4V588.99H47.152C48.1333 589.523 48.8907 590.28 49.424 591.262C49.9787 592.243 50.256 593.31 50.256 594.462C50.256 596.296 49.68 597.768 48.528 598.878C47.3973 599.987 45.648 600.542 43.28 600.542H34V597.886H42.992C44.6347 597.886 45.872 597.544 46.704 596.862C47.536 596.2 47.952 595.208 47.952 593.886C47.952 592.499 47.4507 591.336 46.448 590.398C45.4667 589.459 44.0587 588.99 42.224 588.99H34V586.302ZM33.616 611.942C33.616 610.492 33.936 609.158 34.576 607.942C35.2373 606.726 36.1867 605.756 37.424 605.03C38.6827 604.305 40.1973 603.942 41.968 603.942C43.6533 603.942 45.1147 604.294 46.352 604.998C47.5893 605.724 48.5493 606.694 49.232 607.91C49.9147 609.148 50.256 610.534 50.256 612.07C50.256 613.542 49.936 614.886 49.296 616.102C48.656 617.34 47.7173 618.332 46.48 619.078C45.2427 619.825 43.7387 620.198 41.968 620.198C40.3467 620.198 38.9067 619.846 37.648 619.142C36.3893 618.438 35.3973 617.457 34.672 616.198C33.968 614.961 33.616 613.542 33.616 611.942ZM35.952 611.942C35.952 612.988 36.1973 613.926 36.688 614.758C37.2 615.59 37.904 616.252 38.8 616.742C39.696 617.233 40.752 617.478 41.968 617.478C43.12 617.478 44.144 617.265 45.04 616.838C45.936 616.412 46.64 615.793 47.152 614.982C47.664 614.172 47.92 613.19 47.92 612.038C47.92 610.865 47.6533 609.873 47.12 609.062C46.5867 608.273 45.872 607.676 44.976 607.27C44.08 606.865 43.0773 606.662 41.968 606.662C40.56 606.662 39.408 606.918 38.512 607.43C37.6373 607.942 36.9867 608.604 36.56 609.414C36.1547 610.225 35.952 611.068 35.952 611.942ZM33.616 631.255C33.616 629.804 33.936 628.471 34.576 627.255C35.2373 626.039 36.1867 625.068 37.424 624.343C38.6827 623.617 40.1973 623.255 41.968 623.255C43.6533 623.255 45.1147 623.607 46.352 624.311C47.5893 625.036 48.5493 626.007 49.232 627.223C49.9147 628.46 50.256 629.847 50.256 631.383C50.256 632.855 49.936 634.199 49.296 635.415C48.656 636.652 47.7173 637.644 46.48 638.391C45.2427 639.137 43.7387 639.511 41.968 639.511C40.3467 639.511 38.9067 639.159 37.648 638.455C36.3893 637.751 35.3973 636.769 34.672 635.511C33.968 634.273 33.616 632.855 33.616 631.255ZM35.952 631.255C35.952 632.3 36.1973 633.239 36.688 634.071C37.2 634.903 37.904 635.564 38.8 636.055C39.696 636.545 40.752 636.791 41.968 636.791C43.12 636.791 44.144 636.577 45.04 636.151C45.936 635.724 46.64 635.105 47.152 634.295C47.664 633.484 47.92 632.503 47.92 631.351C47.92 630.177 47.6533 629.185 47.12 628.375C46.5867 627.585 45.872 626.988 44.976 626.583C44.08 626.177 43.0773 625.975 41.968 625.975C40.56 625.975 39.408 626.231 38.512 626.743C37.6373 627.255 36.9867 627.916 36.56 628.727C36.1547 629.537 35.952 630.38 35.952 631.255ZM34 643.239H56.4V645.927H34V643.239ZM26.96 658.802H49.872V661.234L47.248 661.49C48.016 662.002 48.7093 662.727 49.328 663.666C49.9467 664.626 50.256 665.842 50.256 667.314C50.256 668.914 49.8933 670.3 49.168 671.474C48.4427 672.647 47.4507 673.554 46.192 674.194C44.9333 674.834 43.504 675.154 41.904 675.154C40.3253 675.154 38.9067 674.834 37.648 674.194C36.3893 673.554 35.3973 672.636 34.672 671.442C33.968 670.268 33.616 668.882 33.616 667.282C33.616 665.98 33.8827 664.818 34.416 663.794C34.9493 662.791 35.696 662.023 36.656 661.49H26.96V658.802ZM35.952 666.994C35.952 668.082 36.1973 669.031 36.688 669.842C37.2 670.652 37.904 671.282 38.8 671.73C39.7173 672.199 40.7627 672.434 41.936 672.434C43.0667 672.434 44.08 672.21 44.976 671.762C45.8933 671.335 46.608 670.716 47.12 669.906C47.6533 669.095 47.92 668.124 47.92 666.994C47.92 665.927 47.664 664.978 47.152 664.146C46.6613 663.335 45.968 662.695 45.072 662.226C44.176 661.778 43.1307 661.554 41.936 661.554C40.8267 661.554 39.8133 661.778 38.896 662.226C38 662.674 37.2853 663.303 36.752 664.114C36.2187 664.924 35.952 665.884 35.952 666.994ZM34 678.896H49.872V681.328L46.832 681.552C47.8773 682.042 48.7093 682.789 49.328 683.792C49.9467 684.794 50.256 686.032 50.256 687.504H47.44V686.768C47.44 685.018 46.9707 683.717 46.032 682.864C45.0933 682.01 43.7493 681.584 42 681.584H34V678.896ZM33.616 697.255C33.616 695.804 33.936 694.471 34.576 693.255C35.2373 692.039 36.1867 691.068 37.424 690.343C38.6827 689.617 40.1973 689.255 41.968 689.255C43.6533 689.255 45.1147 689.607 46.352 690.311C47.5893 691.036 48.5493 692.007 49.232 693.223C49.9147 694.46 50.256 695.847 50.256 697.383C50.256 698.855 49.936 700.199 49.296 701.415C48.656 702.652 47.7173 703.644 46.48 704.391C45.2427 705.137 43.7387 705.511 41.968 705.511C40.3467 705.511 38.9067 705.159 37.648 704.455C36.3893 703.751 35.3973 702.769 34.672 701.511C33.968 700.273 33.616 698.855 33.616 697.255ZM35.952 697.255C35.952 698.3 36.1973 699.239 36.688 700.071C37.2 700.903 37.904 701.564 38.8 702.055C39.696 702.545 40.752 702.791 41.968 702.791C43.12 702.791 44.144 702.577 45.04 702.151C45.936 701.724 46.64 701.105 47.152 700.295C47.664 699.484 47.92 698.503 47.92 697.351C47.92 696.177 47.6533 695.185 47.12 694.375C46.5867 693.585 45.872 692.988 44.976 692.583C44.08 692.177 43.0773 691.975 41.968 691.975C40.56 691.975 39.408 692.231 38.512 692.743C37.6373 693.255 36.9867 693.916 36.56 694.727C36.1547 695.537 35.952 696.38 35.952 697.255ZM26.96 706.135H29.264V707.383C29.264 708.173 29.4347 708.738 29.776 709.079C30.096 709.442 30.6507 709.623 31.44 709.623H49.872V712.311H31.376C30.352 712.311 29.52 712.141 28.88 711.799C28.2187 711.458 27.7387 710.946 27.44 710.263C27.12 709.602 26.96 708.781 26.96 707.799V706.135ZM53.392 710.999C53.392 710.487 53.5627 710.05 53.904 709.687C54.2667 709.325 54.7147 709.143 55.248 709.143C55.76 709.143 56.1867 709.325 56.528 709.687C56.8693 710.05 57.04 710.487 57.04 710.999C57.04 711.511 56.8693 711.938 56.528 712.279C56.1867 712.642 55.76 712.823 55.248 712.823C54.7147 712.823 54.2667 712.642 53.904 712.279C53.5627 711.938 53.392 711.511 53.392 710.999ZM33.616 724.125C33.616 722.653 33.9573 721.32 34.64 720.125C35.3227 718.952 36.2827 718.024 37.52 717.341C38.7787 716.659 40.2507 716.317 41.936 716.317C43.6 716.317 45.0507 716.637 46.288 717.277C47.5467 717.939 48.5173 718.856 49.2 720.029C49.904 721.224 50.256 722.611 50.256 724.189C50.256 725.683 49.9253 726.984 49.264 728.093C48.6027 729.203 47.7067 730.067 46.576 730.685C45.4667 731.325 44.2187 731.645 42.832 731.645C42.5333 731.645 42.2987 731.645 42.128 731.645C41.9573 731.645 41.6907 731.635 41.328 731.613L41.328 718.973C40.2827 719.037 39.344 719.283 38.512 719.709C37.7013 720.157 37.0613 720.755 36.592 721.501C36.1227 722.269 35.888 723.144 35.888 724.125C35.888 725.235 36.144 726.163 36.656 726.909C37.168 727.656 37.8613 728.2 38.736 728.541V731.197C37.7547 730.92 36.88 730.461 36.112 729.821C35.344 729.181 34.736 728.381 34.288 727.421C33.84 726.483 33.616 725.384 33.616 724.125ZM43.408 719.005L43.408 728.989C44.8373 728.925 45.9573 728.435 46.768 727.517C47.5787 726.6 47.984 725.469 47.984 724.125C47.984 722.845 47.5893 721.704 46.8 720.701C46.032 719.72 44.9013 719.155 43.408 719.005ZM33.616 742.504C33.616 741.011 33.9573 739.656 34.64 738.44C35.3227 737.245 36.2827 736.296 37.52 735.592C38.7787 734.888 40.2507 734.536 41.936 734.536C43.5787 734.536 45.0187 734.877 46.256 735.56C47.5147 736.243 48.496 737.181 49.2 738.376C49.904 739.571 50.256 740.947 50.256 742.504C50.256 744.381 49.7653 745.96 48.784 747.24C47.8027 748.541 46.4907 749.363 44.848 749.704V746.952C45.8293 746.739 46.5867 746.216 47.12 745.384C47.6747 744.552 47.952 743.581 47.952 742.472C47.952 741.341 47.6747 740.392 47.12 739.624C46.5653 738.856 45.8293 738.269 44.912 737.864C43.9947 737.48 43.0027 737.288 41.936 737.288C40.7627 737.288 39.7173 737.512 38.8 737.96C37.8827 738.408 37.168 739.016 36.656 739.784C36.144 740.573 35.888 741.469 35.888 742.472C35.888 743.581 36.1547 744.552 36.688 745.384C37.2427 746.216 38.0213 746.739 39.024 746.952V749.704C37.9573 749.491 37.0187 749.053 36.208 748.392C35.3973 747.731 34.7573 746.899 34.288 745.896C33.84 744.893 33.616 743.763 33.616 742.504ZM34 759.418C34 757.967 34.352 756.826 35.056 755.994C35.76 755.162 37.0293 754.746 38.864 754.746H47.6V751.993H49.872V754.746H53.68V757.434H49.872V761.882H47.6V757.434H38.864C37.8613 757.434 37.1787 757.636 36.816 758.042C36.4747 758.447 36.304 759.162 36.304 760.186V761.882H34V759.418ZM33.616 771.601C33.616 770.342 33.8293 769.211 34.256 768.209C34.704 767.206 35.3227 766.395 36.112 765.777C36.9227 765.179 37.872 764.806 38.96 764.657V767.409C38.128 767.579 37.4027 768.017 36.784 768.721C36.1867 769.446 35.888 770.417 35.888 771.633C35.888 772.763 36.1227 773.595 36.592 774.129C37.0827 774.662 37.6587 774.929 38.32 774.929C38.96 774.929 39.4507 774.769 39.792 774.449C40.1333 774.15 40.3893 773.702 40.56 773.105C40.752 772.529 40.9333 771.814 41.104 770.961C41.296 770.065 41.552 769.19 41.872 768.337C42.2133 767.483 42.672 766.779 43.248 766.225C43.824 765.67 44.5813 765.393 45.52 765.393C46.4587 765.393 47.28 765.627 47.984 766.097C48.688 766.566 49.2427 767.227 49.648 768.081C50.0533 768.955 50.256 769.979 50.256 771.153C50.256 772.838 49.8293 774.214 48.976 775.281C48.144 776.369 46.9493 776.998 45.392 777.169V774.513C46.2027 774.406 46.832 774.054 47.28 773.457C47.7493 772.881 47.984 772.102 47.984 771.121C47.984 770.161 47.7813 769.414 47.376 768.881C46.9707 768.369 46.4373 768.113 45.776 768.113C45.3493 768.113 44.9867 768.262 44.688 768.561C44.3893 768.859 44.1333 769.286 43.92 769.841C43.7067 770.417 43.5147 771.089 43.344 771.857C43.1307 772.923 42.864 773.894 42.544 774.769C42.224 775.643 41.7547 776.347 41.136 776.881C40.5387 777.414 39.6747 777.681 38.544 777.681C37.6053 777.702 36.7627 777.457 36.016 776.945C35.2693 776.454 34.6827 775.75 34.256 774.833C33.8293 773.937 33.616 772.859 33.616 771.601ZM33.84 782.449C33.84 781.915 34.0107 781.467 34.352 781.105C34.7147 780.763 35.152 780.593 35.664 780.593C36.176 780.593 36.6027 780.763 36.944 781.105C37.3067 781.467 37.488 781.915 37.488 782.449C37.488 782.961 37.3067 783.387 36.944 783.729C36.6027 784.091 36.176 784.273 35.664 784.273C35.152 784.273 34.7147 784.091 34.352 783.729C34.0107 783.387 33.84 782.961 33.84 782.449Z" fill="black"/>
</svg>
