<svg width="220" height="240" viewBox="0 0 220 240" fill="none" xmlns="http://www.w3.org/2000/svg">
<path d="M108.522 17.3691C108.893 15.8128 111.107 15.8128 111.478 17.3691L121.774 60.6406C122.247 62.6265 124.762 63.2547 126.113 61.7246L155.823 28.0693C156.884 26.8672 158.843 27.9164 158.43 29.4658L147.009 72.3096C146.479 74.2982 148.428 76.0487 150.349 75.3086L192.54 59.0479C194.043 58.4687 195.296 60.3207 194.198 61.5L163.814 94.1406C162.4 95.6607 163.328 98.1432 165.394 98.3613L210.317 103.107C211.925 103.277 212.19 105.507 210.667 106.049L168.259 121.146C166.298 121.844 165.981 124.484 167.722 125.625L205.191 150.194C206.541 151.08 205.761 153.181 204.16 152.971L159.301 147.061C157.25 146.791 155.766 148.97 156.769 150.779L178.308 189.634C179.087 191.039 177.435 192.534 176.114 191.618L139.067 165.918C137.384 164.75 135.085 165.973 135.112 168.021L135.71 212.377C135.732 213.978 133.582 214.519 132.844 213.099L112.234 173.464C111.294 171.655 108.706 171.655 107.766 173.464L87.1562 213.099C86.4176 214.519 84.2685 213.977 84.29 212.377L84.8877 168.021C84.9153 165.973 82.6157 164.75 80.9326 165.918L43.8857 191.618C42.5652 192.534 40.9131 191.039 41.6924 189.634L63.2314 150.779C64.2025 149.027 62.8398 146.927 60.8896 147.043L60.6992 147.061L15.8398 152.971C14.2393 153.181 13.4585 151.08 14.8086 150.194L52.2783 125.625C54.0187 124.484 53.702 121.844 51.7412 121.146L9.33301 106.049C7.81034 105.507 8.07529 103.277 9.68262 103.107L54.6064 98.3613C56.6716 98.1432 57.6005 95.6607 56.1855 94.1406L25.8027 61.5C24.705 60.3207 25.9566 58.4687 27.46 59.0479L69.6514 75.3086C71.5718 76.0487 73.5213 74.2982 72.9912 72.3096L61.5703 29.4658C61.1573 27.9164 63.1156 26.8672 64.1768 28.0693L93.8867 61.7246C95.2378 63.2547 97.7529 62.6265 98.2256 60.6406L108.522 17.3691Z" fill="#607BC4" stroke="black"/>
<mask id="path-2-inside-1_13_9" fill="white">
<path d="M212 120C212 135.759 209.349 151.363 204.198 165.922C199.047 180.481 191.496 193.71 181.978 204.853C172.46 215.996 161.161 224.835 148.725 230.866C136.289 236.896 122.96 240 109.5 240C96.0395 240 82.7108 236.896 70.2749 230.866C57.8391 224.835 46.5396 215.996 37.0215 204.853C27.5035 193.71 19.9535 180.481 14.8023 165.922C9.65124 151.363 7 135.759 7 120L109.5 120H212Z"/>
</mask>
<path d="M212 120C212 135.759 209.349 151.363 204.198 165.922C199.047 180.481 191.496 193.71 181.978 204.853C172.46 215.996 161.161 224.835 148.725 230.866C136.289 236.896 122.96 240 109.5 240C96.0395 240 82.7108 236.896 70.2749 230.866C57.8391 224.835 46.5396 215.996 37.0215 204.853C27.5035 193.71 19.9535 180.481 14.8023 165.922C9.65124 151.363 7 135.759 7 120L109.5 120H212Z" fill="white" stroke="black" stroke-width="2" mask="url(#path-2-inside-1_13_9)"/>
</svg>
