<svg width="401" height="83" viewBox="0 0 401 83" fill="none" xmlns="http://www.w3.org/2000/svg">
<g filter="url(#filter0_i_1_3)">
<path d="M31.3125 9.5625C32.5625 9.5625 33.4167 12.6667 33.875 18.875H36.375C41.4583 19.5833 44 22.1042 44 26.4375L43.125 49.3125L44 57.75C43.0417 61.7083 40.5 63.6875 36.375 63.6875L33 62.875V71.3125L31.3125 73H19.4375C13.8125 73 11 76.1042 11 82.3125H2.5625L0.875 80.5625L0 10.375L0.875 9.5625H31.3125ZM12.6875 32.375V49.3125H30.4375V32.375H12.6875ZM66.1875 11.4375H84.8125L87.3125 14V20.75H90.75C95.7917 20.75 98.3125 24.7083 98.3125 32.625C103.396 32.625 105.938 33.1875 105.938 34.3125V52.0625L104.25 53.75H97.5V58.875C97.5 63.375 94.6667 65.625 89 65.625L88.1875 64.75H87.3125C87.3125 71.5417 86.4792 74.9375 84.8125 74.9375H66.1875L63.625 72.375V64.75H56L53.4375 62.25V53.75H46.6875L45 52.0625V34.3125L46.6875 32.625H53.4375V23.3125C53.4375 21.9375 55.7083 21.0833 60.25 20.75L63.625 21.625V14L66.1875 11.4375ZM109.062 11.875H138.938L140.625 13.5625L139.75 34.0625L138.938 34.875H130.375V51.0625L129.562 74.0625L128.688 74.9375H109.938C108.229 74.9375 107.375 67.5417 107.375 52.75V13.5625L109.062 11.875ZM150 5H152.75C164.833 5.95833 170.875 7.16667 170.875 8.625V16.8125H180.875L183.625 19.5625V20.4375C181.917 33.1458 180.396 39.5 179.062 39.5H172.688V60.375H180.875L183.625 63.125V72.1875C183.25 74.0208 180.833 74.9375 176.375 74.9375H162.75C153.667 73.5208 149.125 72.3125 149.125 71.3125V70.375L146.375 25.875V13.1875C146.375 8.5625 147.583 5.83333 150 5ZM197.438 0H216.625L218.375 1.75L217.5 30.5L215.75 36.625V40.9375H209.625L207.875 42.6875V59.25L208.75 68.8125C208.75 72.3125 206.438 74.3542 201.812 74.9375H196.562C195.396 74.9375 194.521 72.8958 193.938 68.8125V67.125H194.812L193.938 58.375V41.8125H187C185.25 41.8125 184.375 35.1458 184.375 21.8125L187 19.1875H193.938C194.979 6.39583 196.146 0 197.438 0ZM241.188 11.4375H259.812L262.312 14V20.75H265.75C270.792 20.75 273.312 24.7083 273.312 32.625C278.396 32.625 280.938 33.1875 280.938 34.3125V52.0625L279.25 53.75H272.5V58.875C272.5 63.375 269.667 65.625 264 65.625L263.188 64.75H262.312C262.312 71.5417 261.479 74.9375 259.812 74.9375H241.188L238.625 72.375V64.75H231L228.438 62.25V53.75H221.688L220 52.0625V34.3125L221.688 32.625H228.438V23.3125C228.438 21.9375 230.708 21.0833 235.25 20.75L238.625 21.625V14L241.188 11.4375ZM290.188 0.125H302.125C306.083 0.125 308.062 2.10417 308.062 6.0625V69.8125C308.062 72.7708 307.208 74.4792 305.5 74.9375H286.812C285.104 74.3542 284.25 72.6458 284.25 69.8125V6.0625C284.25 2.10417 286.229 0.125 290.188 0.125ZM329.375 10.5H331.562C334.021 11.8333 335.25 14.0208 335.25 17.0625L333.062 31.75L333.75 43.4375V46.375L333.062 73.5L332.312 74.1875H325L324.25 73.5H323.5L322.812 74.1875V74.9375C317.438 74.9375 314.75 73.7083 314.75 71.25L314 66.125V42.6875L314.75 13.4375L329.375 10.5ZM360.562 11.4375H379.188L381.688 14V20.75H385.125C390.167 20.75 392.688 24.7083 392.688 32.625C397.771 32.625 400.312 33.1875 400.312 34.3125V52.0625L398.625 53.75H391.875V58.875C391.875 63.375 389.042 65.625 383.375 65.625L382.562 64.75H381.688C381.688 71.5417 380.854 74.9375 379.188 74.9375H360.562L358 72.375V64.75H350.375L347.812 62.25V53.75H341.062L339.375 52.0625V34.3125L341.062 32.625H347.812V23.3125C347.812 21.9375 350.083 21.0833 354.625 20.75L358 21.625V14L360.562 11.4375Z" fill="#607BC4"/>
</g>
<defs>
<filter id="filter0_i_1_3" x="0" y="0" width="400.312" height="86.3125" filterUnits="userSpaceOnUse" color-interpolation-filters="sRGB">
<feFlood flood-opacity="0" result="BackgroundImageFix"/>
<feBlend mode="normal" in="SourceGraphic" in2="BackgroundImageFix" result="shape"/>
<feColorMatrix in="SourceAlpha" type="matrix" values="0 0 0 0 0 0 0 0 0 0 0 0 0 0 0 0 0 0 127 0" result="hardAlpha"/>
<feOffset dy="4"/>
<feGaussianBlur stdDeviation="2"/>
<feComposite in2="hardAlpha" operator="arithmetic" k2="-1" k3="1"/>
<feColorMatrix type="matrix" values="0 0 0 0 0 0 0 0 0 0 0 0 0 0 0 0 0 0 0.25 0"/>
<feBlend mode="normal" in2="shape" result="effect1_innerShadow_1_3"/>
</filter>
</defs>
</svg>
